<svg width="554" height="554" viewBox="0 0 554 554" fill="none" xmlns="http://www.w3.org/2000/svg">
<rect width="554" height="554" fill="white"/>
<path d="M56.7917 525.859H55.5301V517.142L53 518.111V516.923L56.595 515.516H56.7917V525.859Z" fill="#3E3E3D"/>
<path d="M65.3926 515.558V516.668H65.162C64.1853 516.687 63.4075 516.989 62.8286 517.573C62.2498 518.158 61.9152 518.98 61.8248 520.04C62.3448 519.418 63.0547 519.107 63.9546 519.107C64.8138 519.107 65.4989 519.423 66.0099 520.055C66.5254 520.686 66.7832 521.501 66.7832 522.501C66.7832 523.561 66.5051 524.409 65.9488 525.046C65.3972 525.682 64.6555 526 63.724 526C62.7789 526 62.0124 525.623 61.4246 524.869C60.8367 524.11 60.5428 523.135 60.5428 521.942V521.44C60.5428 519.546 60.9294 518.099 61.7027 517.1C62.4804 516.096 63.6358 515.582 65.1688 515.558H65.3926ZM63.7444 520.196C63.3148 520.196 62.9191 520.33 62.5573 520.599C62.1956 520.868 61.9446 521.205 61.8044 521.61V522.091C61.8044 522.939 61.9875 523.622 62.3538 524.141C62.7201 524.659 63.1768 524.918 63.724 524.918C64.2893 524.918 64.7324 524.702 65.0535 524.268C65.3791 523.834 65.5419 523.266 65.5419 522.564C65.5419 521.857 65.3768 521.287 65.0467 520.853C64.7211 520.415 64.287 520.196 63.7444 520.196Z" fill="#3E3E3D"/>
<path d="M70.0933 520.076H71.0361C71.6285 520.066 72.0943 519.904 72.4334 519.588C72.7726 519.272 72.9422 518.846 72.9422 518.308C72.9422 517.102 72.3656 516.499 71.2125 516.499C70.6699 516.499 70.2357 516.661 69.9102 516.987C69.5891 517.307 69.4286 517.734 69.4286 518.266H68.1737C68.1737 517.451 68.4586 516.774 69.0284 516.237C69.6027 515.695 70.3307 515.424 71.2125 515.424C72.144 515.424 72.8743 515.681 73.4034 516.195C73.9325 516.708 74.197 517.422 74.197 518.337C74.197 518.784 74.0569 519.218 73.7765 519.638C73.5006 520.057 73.1231 520.37 72.6437 520.578C73.1864 520.757 73.6047 521.054 73.8986 521.469C74.197 521.883 74.3463 522.39 74.3463 522.988C74.3463 523.912 74.0569 524.645 73.478 525.187C72.8992 525.729 72.1463 526 71.2193 526C70.2923 526 69.5371 525.738 68.9537 525.215C68.3749 524.692 68.0855 524.002 68.0855 523.144H69.3472C69.3472 523.686 69.5167 524.12 69.8559 524.445C70.195 524.77 70.6495 524.933 71.2193 524.933C71.8252 524.933 72.2887 524.768 72.6098 524.438C72.9309 524.108 73.0914 523.634 73.0914 523.017C73.0914 522.418 72.915 521.959 72.5623 521.638C72.2096 521.318 71.7009 521.153 71.0361 521.143H70.0933V520.076Z" fill="#3E3E3D"/>
<path d="M82.5402 525.859H76.0692V524.918L79.4878 520.96C79.9943 520.361 80.3425 519.876 80.5324 519.503C80.7269 519.126 80.8241 518.737 80.8241 518.337C80.8241 517.799 80.6681 517.359 80.3561 517.015C80.044 516.671 79.628 516.499 79.108 516.499C78.4839 516.499 77.9978 516.685 77.6496 517.057C77.3059 517.425 77.1341 517.939 77.1341 518.598H75.8792C75.8792 517.651 76.1709 516.885 76.7543 516.301C77.3421 515.716 78.1267 515.424 79.108 515.424C80.0259 515.424 80.7517 515.676 81.2853 516.181C81.8189 516.68 82.0857 517.347 82.0857 518.181C82.0857 519.195 81.4662 520.401 80.2272 521.801L77.5818 524.791H82.5402V525.859Z" fill="#3E3E3D"/>
<path d="M88.8077 525.859H87.5529V515H88.8077V525.859Z" fill="#3E3E3D"/>
<path d="M92.1857 525.859H90.9308V518.21H92.1857V525.859ZM90.8291 516.181C90.8291 515.969 90.8901 515.789 91.0122 515.643C91.1388 515.497 91.3243 515.424 91.5684 515.424C91.8126 515.424 91.998 515.497 92.1247 515.643C92.2513 515.789 92.3146 515.969 92.3146 516.181C92.3146 516.393 92.2513 516.569 92.1247 516.711C91.998 516.852 91.8126 516.923 91.5684 516.923C91.3243 516.923 91.1388 516.852 91.0122 516.711C90.8901 516.569 90.8291 516.393 90.8291 516.181Z" fill="#3E3E3D"/>
<path d="M96.2487 522.317L95.4619 523.172V525.859H94.207V515H95.4619V521.567L96.1334 520.726L98.4193 518.21H99.9455L97.0898 521.405L100.278 525.859H98.806L96.2487 522.317Z" fill="#3E3E3D"/>
<path d="M104.151 526C103.156 526 102.347 525.661 101.723 524.982C101.099 524.299 100.787 523.387 100.787 522.246V522.006C100.787 521.247 100.925 520.571 101.2 519.977C101.481 519.378 101.87 518.912 102.367 518.577C102.869 518.238 103.412 518.068 103.995 518.068C104.949 518.068 105.691 518.396 106.22 519.051C106.749 519.706 107.013 520.644 107.013 521.864V522.409H102.041C102.06 523.163 102.27 523.773 102.672 524.24C103.079 524.702 103.595 524.933 104.219 524.933C104.662 524.933 105.037 524.838 105.345 524.65C105.652 524.461 105.921 524.211 106.152 523.9L106.918 524.522C106.303 525.507 105.381 526 104.151 526ZM103.995 519.143C103.489 519.143 103.063 519.336 102.72 519.722C102.376 520.104 102.164 520.641 102.082 521.334H105.759V521.235C105.722 520.571 105.551 520.057 105.243 519.694C104.936 519.326 104.52 519.143 103.995 519.143Z" fill="#3E3E3D"/>
<path d="M112.745 523.83C112.745 523.476 112.616 523.203 112.358 523.01C112.105 522.812 111.66 522.642 111.022 522.501C110.389 522.359 109.885 522.19 109.51 521.992C109.139 521.794 108.863 521.558 108.682 521.285C108.506 521.011 108.418 520.686 108.418 520.309C108.418 519.682 108.671 519.152 109.177 518.719C109.688 518.285 110.339 518.068 111.131 518.068C111.963 518.068 112.637 518.292 113.152 518.74C113.672 519.187 113.932 519.76 113.932 520.458H112.671C112.671 520.099 112.524 519.791 112.23 519.531C111.94 519.272 111.574 519.143 111.131 519.143C110.674 519.143 110.317 519.246 110.059 519.454C109.801 519.661 109.672 519.932 109.672 520.267C109.672 520.582 109.792 520.82 110.032 520.981C110.272 521.141 110.703 521.294 111.327 521.44C111.956 521.586 112.465 521.761 112.854 521.963C113.243 522.166 113.53 522.411 113.715 522.699C113.905 522.981 114 523.328 114 523.738C114 524.421 113.738 524.97 113.213 525.385C112.689 525.795 112.008 526 111.171 526C110.584 526 110.064 525.892 109.611 525.675C109.159 525.458 108.804 525.156 108.546 524.77C108.293 524.379 108.167 523.957 108.167 523.504H109.421C109.444 523.943 109.611 524.292 109.923 524.551C110.24 524.805 110.656 524.933 111.171 524.933C111.646 524.933 112.026 524.834 112.311 524.636C112.6 524.433 112.745 524.164 112.745 523.83Z" fill="#3E3E3D"/>
<path d="M39.511 530L46.9238 523.64C47.7632 522.931 48.3888 521.977 48.7235 520.896C50.0846 516.374 46.2151 511.517 41.6257 513.427C40.3653 514.178 40.3653 514.178 39.4997 515.682C38.678 514.178 38.678 514.178 37.3737 513.427C32.7956 511.529 28.9149 516.374 30.276 520.896C30.6107 521.977 31.2363 522.931 32.0757 523.64L39.511 530Z" fill="#3E3E3D"/>
<path d="M41.0127 493L49.5959 485.892C50.5679 485.1 51.2923 484.033 51.6798 482.825C53.2558 477.771 48.7754 472.343 43.4613 474.477C42.0019 475.317 42.0019 475.317 40.9997 476.997C40.0482 475.317 40.0482 475.317 38.538 474.477C33.237 472.356 28.7435 477.771 30.3195 482.825C30.7071 484.033 31.4315 485.1 32.4035 485.892L41.0127 493Z" fill="#C84852"/>
<path d="M89.9219 487.429C90.981 485.349 91.2712 482.966 90.7418 480.695C90.2123 478.425 88.8968 476.411 87.0253 475.007C85.1538 473.603 82.8453 472.896 80.5032 473.012C78.1611 473.128 75.9345 474.058 74.2125 475.64C72.4904 477.222 71.3824 479.356 71.0823 481.667C70.7821 483.979 71.3088 486.322 72.5703 488.287C73.8318 490.252 75.7479 491.713 77.9836 492.416C80.2194 493.119 82.6326 493.019 84.8015 492.133C85.2243 491.953 85.697 491.925 86.1384 492.053L89.1064 492.957C89.2629 493.006 89.4295 493.013 89.5899 492.979C89.7502 492.945 89.899 492.87 90.0215 492.761C90.144 492.653 90.2362 492.515 90.2891 492.36C90.3419 492.206 90.3535 492.041 90.3229 491.88L89.7213 488.691C89.6439 488.26 89.7145 487.815 89.9219 487.429Z" stroke="#3E3E3D" stroke-width="1.5" stroke-miterlimit="10"/>
<path d="M521.637 494.792L514.008 488.097L506.379 494.792C506.257 494.9 506.108 494.969 505.949 494.992C505.79 495.015 505.628 494.99 505.482 494.92C505.336 494.851 505.214 494.74 505.128 494.601C505.043 494.462 504.998 494.3 505 494.136L505 475.395C505 475.025 505.144 474.67 505.399 474.409C505.655 474.147 506.001 474 506.363 474L521.637 474C521.999 474 522.345 474.147 522.601 474.409C522.856 474.67 523 475.025 523 475.395L523 494.185C522.991 494.342 522.939 494.494 522.851 494.623C522.763 494.752 522.642 494.854 522.501 494.916C522.36 494.979 522.204 495.001 522.052 494.979C521.9 494.957 521.756 494.893 521.637 494.792V494.792Z" stroke="#3E3E3D" stroke-width="1.5" stroke-linejoin="round"/>
<path d="M109.635 474.136L132.911 474.136L118.046 494L118.033 481.317L109.635 474.136Z" stroke="#3E3E3D" stroke-width="1.35" stroke-linejoin="round"/>
<path d="M118.031 481.317L132.909 474.136" stroke="#3E3E3D" stroke-width="1.35" stroke-linejoin="round"/>
</svg>
