<svg width="2500" height="251" viewBox="0 0 2500 251" fill="none" xmlns="http://www.w3.org/2000/svg">
<g clip-path="url(#clip0)">
<path opacity="0.6" d="M1790.83 131.603C1418.78 131.603 1418.78 0 1047.13 0C675.475 0 675.53 131.603 303.487 131.603C116.466 131.603 23.5106 98.2861 -70 64.9688V756.025H2508.32V0.277661C2162.54 6.38583 2153.71 131.603 1790.83 131.603Z" fill="white"/>
<path opacity="0.5" d="M2239.44 0C1867.4 0 1867.4 131.603 1495.69 131.603C1123.98 131.603 1123.65 0 751.993 0C380.339 0 379.95 131.603 8.40658 131.603H7.74023V755.914H2586V56.9171C2500.76 27.2091 2408.59 0 2239.44 0Z" fill="white"/>
<path opacity="0.35" d="M1859.79 153.815C1487.75 153.815 1487.75 22.2115 1116.1 22.2115C744.442 22.2115 744.053 153.815 372.51 153.815C176.549 153.815 83.7598 117.277 -14.4707 82.6824V778.126H2563.79V22.9333C2231.17 31.7624 2217.9 153.815 1859.79 153.815Z" fill="white"/>
<path d="M2325.07 77.7401C1953.03 77.7401 1953.03 209.343 1581.32 209.343C1209.61 209.343 1209.27 77.7401 837.619 77.7401C465.965 77.7401 465.576 209.343 94.0327 209.343C53.8298 209.343 18.0137 207.789 -14.4707 205.012V833.599H2563.84V102.506C2502.43 87.9575 2427.85 77.7401 2325.07 77.7401Z" fill="white"/>
</g>
<defs>
<clipPath id="clip0">
<rect width="2500" height="251" fill="white"/>
</clipPath>
</defs>
</svg>
