<svg width="162" height="750" viewBox="0 0 162 750" fill="none" xmlns="http://www.w3.org/2000/svg">
<g clip-path="url(#clip0)">
<path opacity="0.6" d="M64.6084 406.14C64.6084 145.597 156.77 145.597 156.77 -114.673C156.77 -374.943 64.6085 -374.904 64.6085 -635.447C64.6085 -766.418 87.9406 -831.514 111.273 -897L-372.675 -897L-372.675 908.597L156.576 908.597C152.298 666.449 64.6084 660.266 64.6084 406.14Z" fill="white"/>
<path opacity="0.5" d="M156.77 720.307C156.77 459.764 64.6085 459.764 64.6085 199.455C64.6085 -60.8538 156.77 -61.087 156.77 -321.357C156.77 -581.627 64.6085 -581.9 64.6085 -842.092L64.6085 -842.559L-372.597 -842.559L-372.597 963L116.911 963C137.716 903.309 156.77 838.756 156.77 720.307Z" fill="white"/>
<path opacity="0.35" d="M49.0538 454.437C49.0538 193.895 141.216 193.895 141.216 -66.3755C141.216 -326.646 49.0538 -326.918 49.0538 -587.11C49.0538 -724.342 74.6414 -789.322 98.868 -858.113L-388.152 -858.113L-388.152 947.445L140.71 947.445C134.527 714.513 49.0538 705.219 49.0538 454.437Z" fill="white"/>
<path d="M102.329 780.27C102.329 519.728 10.1671 519.728 10.1671 259.419C10.1671 -0.890019 102.329 -1.12335 102.329 -261.393C102.329 -521.664 10.1671 -521.936 10.1671 -782.128C10.1671 -810.282 11.2559 -835.364 13.2003 -858.113L-427 -858.113L-427 947.484L84.9854 947.484C95.1738 904.475 102.329 852.25 102.329 780.27Z" fill="white"/>
</g>
<defs>
<clipPath id="clip0">
<rect width="162" height="750" fill="white"/>
</clipPath>
</defs>
</svg>
