<svg width="150" height="88" viewBox="0 0 150 88" fill="none" xmlns="http://www.w3.org/2000/svg">
<g clip-path="url(#clip0)">
<path d="M19.3877 27.6326L21.0617 23.6683L26.213 18.7554L41.9175 18.2988V57.5836H29.1351L24.7052 59.3687L19.3877 66.29V27.6326Z" fill="white"/>
<path d="M43.0367 19.4234L28.5296 34.2702H24.0879L40.7918 17.1753L43.0367 19.4234Z" fill="#B01A25"/>
<path d="M42.761 56.2125L40.548 58.4764L23.8984 41.8122L23.9141 41.7964H28.3639L42.761 56.2125Z" fill="#B01A25"/>
<path d="M20.6081 44.6782L18.5762 42.8184L18.8004 42.4105C18.8004 40.6329 18.162 39.9683 19.0571 38.9767C20.6574 37.2048 23.1753 36.5427 24.7775 36.4637L43.4546 36.4624V39.6514H24.9006C24.3296 39.6894 20.6075 40.053 20.6075 43.0827V44.6782H20.6081Z" fill="#B01A25"/>
<path d="M30.8512 59.1772H43.4938V16.7009H30.8512C27.0972 16.7009 23.5056 18.3261 21.0071 21.1465C19.6516 22.6641 18.6647 24.4285 18.0963 26.3256L13.7801 21.9559V21.9496L19.1269 8.53067L22.8123 17.8139C23.7055 17.27 24.6237 16.7135 25.6481 16.41L19.1269 0L1.38743 44.5062C-0.986164 50.4884 -0.286578 57.2421 3.27382 62.5857C6.83421 67.9229 12.762 71.1163 19.1269 71.1163C25.4919 71.1163 31.4197 67.9229 34.9801 62.5857C35.3798 61.9786 35.7483 61.3526 36.0794 60.7202H32.4191C32.4066 60.7518 32.3816 60.7708 32.3629 60.8024C29.6769 64.8432 25.5544 67.3348 20.8634 67.828C21.1632 65.8487 22.0377 64.0085 23.3994 62.5098C25.3045 60.3913 28.0154 59.1772 30.8512 59.1772ZM12.4934 25.162L17.5529 30.2842V50.3303L6.80922 39.4536L12.4934 25.162ZM5.88477 60.8024C2.86156 56.2746 2.2869 50.7667 4.3107 45.7014L5.52248 42.666L17.5529 54.8391V67.847C12.7932 67.3917 8.60191 64.8875 5.88477 60.8024ZM22.9622 58.6334C22.2813 59.1393 21.6504 59.7147 21.0764 60.3534C20.9452 60.4925 20.8203 60.638 20.7016 60.7834V29.6961C20.8016 27.5334 21.5948 25.4403 22.9753 23.7139V32.2319L35.1618 19.8944H40.34V25.2632L31.4384 34.2745H40.3394V41.806H31.7757L40.3394 50.4758V55.9901H34.6303L22.9622 44.1837V58.6334Z" fill="#2E336A"/>
<path d="M20.7408 72.4717H17.5908V87.844H20.7408V72.4717Z" fill="#2E336A"/>
<path d="M28.4871 87.847H22.5781V72.4766H28.4828C31.0106 72.4766 33.0682 74.5596 33.0682 77.1188C33.0682 79.6793 31.0106 81.7617 28.4828 81.7617H27.8525V78.5726H28.4821C29.2735 78.5726 29.9175 77.92 29.9175 77.1188C29.9175 76.3176 29.2735 75.6656 28.4821 75.6656H25.7281V84.6573H28.4871C29.276 84.6573 29.9175 84.0078 29.9175 83.2092H33.0675C33.0675 85.7665 31.0125 87.847 28.4871 87.847Z" fill="#2E336A"/>
<path d="M38.9036 87.8525H35.212V84.6628H38.9036C39.695 84.6628 40.3396 84.0102 40.3396 83.209C40.3396 82.4078 39.695 81.7558 38.9036 81.7558H38.2221C35.6943 81.7558 33.6367 79.6728 33.6367 77.1136C33.6367 74.5531 35.6943 72.4707 38.2221 72.4707H41.9149V75.6597H38.2221C37.4307 75.6597 36.7867 76.3124 36.7867 77.1136C36.7867 77.9148 37.4307 78.5668 38.2221 78.5668H38.9036C41.4327 78.5668 43.4896 80.6498 43.4896 83.209C43.4903 85.7694 41.4327 87.8525 38.9036 87.8525Z" fill="#2E336A"/>
<path d="M17.5525 30.2841V31.7259H17.54V30.2715L17.5525 30.2841Z" fill="#2E336A"/>
<path d="M58.3467 26.0798L59.2249 15.3042H62.0532L63.6017 19.8554L64.137 21.6342H64.167C64.365 20.9102 64.5443 20.3183 64.7023 19.8554L66.2508 15.3042H69.0791L69.9429 26.0798H67.3376L67.0103 21.227C66.9903 20.9854 66.9803 20.7141 66.9803 20.4131C66.9803 20.1121 66.9853 19.8712 66.9953 19.6897L67.0097 19.4178H66.9797C66.7417 20.1716 66.5431 20.7748 66.3844 21.2263L65.2682 24.3465H63.0352L61.9196 21.227L61.3243 19.4184H61.2943C61.3337 20.0818 61.3337 20.6844 61.2943 21.227L60.967 26.0798H58.3467Z" fill="#2D3265"/>
<path d="M71.4463 26.0798V18.3187H74.0216V26.0798H71.4463ZM71.4763 17.3392V15.3042H73.9923V17.3392H71.4763Z" fill="#2D3265"/>
<path d="M74.9893 26.0796L77.1474 22.071V22.0406L75.1529 18.3179H77.8026L79.2174 21.0756H79.902V18.3185H82.2987V21.0763H82.9983L84.4131 18.3185H87.0621L85.0677 22.0413V22.0716L87.2264 26.0802H84.4424L83.0732 23.2617H82.2993V26.0802H79.9026V23.2617H79.1437L77.7739 26.0802H74.9893V26.0796Z" fill="#2D3265"/>
<path d="M88.1934 26.0799V18.3188H90.7687V21.0614H93.1361V18.3188H95.7108V26.0799H93.1361V23.2469H90.7687V26.0799H88.1934Z" fill="#2D3265"/>
<path d="M96.8867 23.8942C96.8867 23.4022 97.021 22.9753 97.289 22.6136C97.5576 22.2519 97.9117 21.9755 98.3534 21.7846C98.795 21.5936 99.2541 21.4551 99.7307 21.3704C100.207 21.2856 100.703 21.242 101.219 21.242H101.442V21.1067C101.442 20.5337 101.08 20.2479 100.356 20.2479C99.6807 20.2479 98.9761 20.4945 98.2415 20.9859L97.3483 19.1476C97.6956 18.8763 98.1741 18.6404 98.785 18.4393C99.3959 18.2389 99.998 18.1377 100.594 18.1377C101.656 18.1377 102.492 18.4191 103.102 18.9819C103.713 19.5447 104.018 20.3181 104.018 21.3027V26.0803H101.666V25.6129L101.696 25.1311H101.666C101.418 25.4827 101.087 25.759 100.676 25.9601C100.264 26.1612 99.8344 26.2618 99.3877 26.2618C98.6532 26.2618 98.0529 26.036 97.5863 25.5839C97.1203 25.1304 96.8867 24.5676 96.8867 23.8942ZM99.4327 23.6532C99.4327 23.8442 99.497 24.0023 99.6263 24.1281C99.755 24.2533 99.9337 24.3166 100.162 24.3166C100.519 24.3166 100.826 24.1711 101.085 23.8796C101.343 23.5881 101.472 23.277 101.472 22.945V22.7338H101.234C100.758 22.7338 100.338 22.8071 99.9755 22.9526C99.6132 23.098 99.4327 23.3313 99.4327 23.6532Z" fill="#2D3265"/>
<path d="M105.654 29.0941V18.3186H107.977V18.71L107.947 19.2077H107.977C108.503 18.4944 109.277 18.1377 110.299 18.1377C111.342 18.1377 112.177 18.5121 112.808 19.2602C113.438 20.0089 113.753 20.9909 113.753 22.2064C113.753 23.4224 113.416 24.402 112.741 25.145C112.066 25.8887 111.213 26.2605 110.18 26.2605C109.446 26.2605 108.796 26.0139 108.23 25.5219H108.201C108.22 25.7027 108.23 25.9241 108.23 26.1852V29.0941H105.654ZM108.155 22.2513C108.155 22.754 108.287 23.1884 108.55 23.5552C108.813 23.922 109.183 24.1054 109.659 24.1054C110.085 24.1054 110.443 23.9397 110.731 23.6083C111.019 23.277 111.162 22.8248 111.162 22.2513C111.162 21.679 111.023 21.2167 110.746 20.8651C110.468 20.5135 110.105 20.3377 109.659 20.3377C109.232 20.3377 108.875 20.499 108.587 20.8202C108.299 21.1421 108.155 21.6183 108.155 22.2513Z" fill="#2D3265"/>
<path d="M115.896 25.138C115.062 24.3893 114.646 23.4174 114.646 22.2222C114.646 21.027 115.062 20.0468 115.896 19.2835C116.729 18.5203 117.757 18.1377 118.977 18.1377C120.208 18.1377 121.242 18.5171 122.081 19.276C122.92 20.0342 123.34 21.0162 123.34 22.2222C123.34 23.418 122.922 24.3899 122.089 25.138C121.255 25.8868 120.223 26.2605 118.993 26.2605C117.761 26.2605 116.729 25.8861 115.896 25.138ZM117.25 22.2222C117.25 22.785 117.419 23.2365 117.757 23.5786C118.094 23.9207 118.506 24.0915 118.993 24.0915C119.479 24.0915 119.891 23.9201 120.228 23.5786C120.566 23.2371 120.735 22.785 120.735 22.2222C120.735 21.6492 120.566 21.187 120.228 20.8354C119.891 20.4838 119.48 20.308 118.993 20.308C118.506 20.308 118.095 20.4838 117.757 20.8354C117.419 21.187 117.25 21.6486 117.25 22.2222Z" fill="#2D3265"/>
<path d="M123.83 24.0152H124.783C125.309 23.1103 125.572 21.8348 125.572 20.1869V18.3188H131.898V24.0159H133V27.8885H130.707V26.0806H126.212V27.8885H123.83V24.0152ZM127.313 24.0152H129.323V20.3829H127.998V20.6694C127.998 22.0157 127.77 23.1312 127.313 24.0152Z" fill="#2D3265"/>
<path d="M134.176 26.0799V18.3188H136.751V21.0614H139.118V18.3188H141.693V26.0799H139.118V23.2469H136.751V26.0799H134.176Z" fill="#2D3265"/>
<path d="M142.869 23.8942C142.869 23.4022 143.003 22.9753 143.271 22.6136C143.54 22.2519 143.894 21.9755 144.336 21.7846C144.777 21.5936 145.237 21.4551 145.713 21.3704C146.19 21.2856 146.686 21.242 147.202 21.242H147.425V21.1067C147.425 20.5337 147.062 20.2479 146.338 20.2479C145.663 20.2479 144.959 20.4945 144.224 20.9859L143.331 19.1476C143.678 18.8763 144.157 18.6404 144.767 18.4393C145.378 18.2389 145.98 18.1377 146.576 18.1377C147.638 18.1377 148.475 18.4191 149.085 18.9819C149.696 19.5447 150.001 20.3181 150.001 21.3027V26.0803H147.648V25.6129L147.678 25.1311H147.648C147.4 25.4827 147.07 25.759 146.658 25.9601C146.247 26.1612 145.817 26.2618 145.37 26.2618C144.636 26.2618 144.035 26.036 143.569 25.5839C143.103 25.1304 142.869 24.5676 142.869 23.8942ZM145.415 23.6532C145.415 23.8442 145.479 24.0023 145.609 24.1281C145.737 24.2533 145.916 24.3166 146.144 24.3166C146.501 24.3166 146.809 24.1711 147.067 23.8796C147.326 23.5881 147.455 23.277 147.455 22.945V22.7338H147.216C146.74 22.7338 146.32 22.8071 145.958 22.9526C145.596 23.098 145.415 23.3313 145.415 23.6532Z" fill="#2D3265"/>
<path d="M58.168 36.5086C58.168 34.9409 58.5028 33.7103 59.1724 32.8161C59.8426 31.922 60.9313 31.2137 62.4398 30.6914L64.9259 29.8472L65.6548 31.9422L62.7671 32.8769C62.3605 33.0179 62.0301 33.1488 61.7771 33.2689C61.5241 33.3891 61.2836 33.5775 61.0556 33.8343C60.827 34.0904 60.7077 34.3945 60.6983 34.7455H60.7283C61.3036 34.2535 62.0532 34.0075 62.9764 34.0075C63.9883 34.0075 64.7922 34.337 65.3875 34.9947C65.9827 35.653 66.2807 36.5098 66.2807 37.564C66.2807 38.6586 65.9184 39.5604 65.1944 40.2686C64.4699 40.9769 63.5123 41.3316 62.3211 41.3316C60.9713 41.3316 59.9413 40.8947 59.2323 40.0207C58.5234 39.1455 58.168 37.9757 58.168 36.5086ZM60.729 37.6089C60.729 38.0914 60.872 38.4778 61.16 38.7693C61.4479 39.0608 61.8002 39.2062 62.2168 39.2062C62.6335 39.2062 62.9857 39.0608 63.2737 38.7693C63.561 38.4778 63.7047 38.0914 63.7047 37.6089C63.7047 37.1169 63.561 36.7198 63.2737 36.4181C62.9857 36.1165 62.6335 35.966 62.2168 35.966C61.8002 35.966 61.4479 36.1165 61.16 36.4181C60.872 36.7198 60.729 37.1163 60.729 37.6089Z" fill="#2D3265"/>
<path d="M68.44 40.2088C67.6061 39.4601 67.1895 38.4882 67.1895 37.293C67.1895 36.0978 67.6061 35.1176 68.44 34.3544C69.2732 33.5911 70.3007 33.2085 71.5213 33.2085C72.7518 33.2085 73.7862 33.5879 74.625 34.3468C75.4639 35.105 75.8837 36.087 75.8837 37.293C75.8837 38.4888 75.4664 39.4607 74.6332 40.2088C73.7993 40.9576 72.7674 41.3313 71.5369 41.3313C70.3051 41.3313 69.2732 40.9569 68.44 40.2088ZM69.7942 37.293C69.7942 37.8558 69.9634 38.3073 70.3007 38.6494C70.638 38.9915 71.0497 39.1623 71.5369 39.1623C72.0228 39.1623 72.4351 38.9909 72.7724 38.6494C73.1097 38.3079 73.279 37.8558 73.279 37.293C73.279 36.72 73.1097 36.2578 72.7724 35.9062C72.4351 35.5546 72.0235 35.3788 71.5369 35.3788C71.0503 35.3788 70.6387 35.5546 70.3007 35.9062C69.9628 36.2578 69.7942 36.7194 69.7942 37.293Z" fill="#2D3265"/>
<path d="M77.1777 44.1649V33.3894H79.5001V33.7808L79.4707 34.2785H79.5001C80.0267 33.5652 80.8006 33.2085 81.8225 33.2085C82.865 33.2085 83.7007 33.5829 84.3316 34.331C84.9612 35.0797 85.2767 36.0617 85.2767 37.2772C85.2767 38.4932 84.9394 39.4728 84.2648 40.2158C83.5895 40.9595 82.7363 41.3313 81.7038 41.3313C80.9692 41.3313 80.3196 41.0847 79.7537 40.5927H79.7243C79.7437 40.7735 79.7537 40.9949 79.7537 41.256V44.1649H77.1777ZM79.6787 37.3221C79.6787 37.8248 79.8105 38.2592 80.0735 38.626C80.3365 38.9928 80.7063 39.1762 81.1822 39.1762C81.6089 39.1762 81.9661 39.0105 82.2541 38.6791C82.542 38.3478 82.6857 37.8956 82.6857 37.3221C82.6857 36.7498 82.5464 36.2875 82.2691 35.9359C81.9911 35.5843 81.6288 35.4085 81.1822 35.4085C80.755 35.4085 80.3983 35.5698 80.1104 35.891C79.8224 36.2129 79.6787 36.6891 79.6787 37.3221Z" fill="#2D3265"/>
<path d="M85.8125 39.0855H86.7651C87.291 38.1806 87.554 36.9051 87.554 35.2572V33.3892H93.8809V39.0862H94.9821V42.9588H92.6897V41.1509H88.1942V42.9588H85.8125V39.0855ZM89.2954 39.0855H91.3055V35.4532H89.9807V35.7397C89.9807 37.086 89.7521 38.2015 89.2954 39.0855Z" fill="#2D3265"/>
<path d="M96.1572 41.1502V33.3892H98.5839V36.8103C98.5839 37.0613 98.5739 37.3174 98.5539 37.5786H98.5839C98.6439 37.4281 98.7825 37.1714 99.0012 36.8103L101.129 33.3892H103.63V41.1502H101.204V37.7595C101.204 37.4382 101.214 37.1771 101.234 36.976H101.204C101.174 37.0569 101.035 37.3124 100.787 37.7449L98.6583 41.1509H96.1572V41.1502Z" fill="#2D3265"/>
<path d="M105.356 41.1502V33.3892H107.932V36.1317H110.299V33.3892H112.874V41.1502H110.299V38.3172H107.932V41.1502H105.356Z" fill="#2D3265"/>
<path d="M114.602 41.1502V33.3892H120.005V35.5746H117.177V41.1502H114.602Z" fill="#2D3265"/>
<path d="M121.807 40.2088C120.973 39.4601 120.557 38.4882 120.557 37.293C120.557 36.0978 120.973 35.1176 121.807 34.3544C122.64 33.5911 123.668 33.2085 124.888 33.2085C126.119 33.2085 127.153 33.5879 127.992 34.3468C128.831 35.105 129.251 36.087 129.251 37.293C129.251 38.4888 128.834 39.4607 128 40.2088C127.166 40.9576 126.135 41.3313 124.904 41.3313C123.672 41.3313 122.64 40.9569 121.807 40.2088ZM123.161 37.293C123.161 37.8558 123.331 38.3073 123.668 38.6494C124.005 38.9915 124.417 39.1623 124.904 39.1623C125.39 39.1623 125.802 38.9909 126.14 38.6494C126.477 38.3079 126.646 37.8558 126.646 37.293C126.646 36.72 126.477 36.2578 126.14 35.9062C125.802 35.5546 125.391 35.3788 124.904 35.3788C124.417 35.3788 124.006 35.5546 123.668 35.9062C123.331 36.2578 123.161 36.7194 123.161 37.293Z" fill="#2D3265"/>
<path d="M130.544 41.1502V33.3892H134.727C135.521 33.3892 136.154 33.565 136.625 33.9166C137.096 34.2688 137.332 34.7709 137.332 35.4241C137.332 35.7656 137.252 36.0894 137.094 36.3961C136.935 36.7021 136.717 36.9406 136.439 37.1119V37.1265C136.845 37.2574 137.148 37.4812 137.347 37.7974C137.545 38.1142 137.645 38.4633 137.645 38.8446C137.645 39.6389 137.37 40.2213 136.819 40.5931C136.268 40.965 135.571 41.1509 134.727 41.1509H130.544V41.1502ZM133.119 36.4486H134.087C134.315 36.4486 134.487 36.3758 134.601 36.2298C134.715 36.0843 134.771 35.9003 134.771 35.6796C134.771 35.4791 134.712 35.316 134.593 35.1902C134.474 35.0649 134.295 35.0017 134.057 35.0017H133.119V36.4486ZM133.119 39.5225H134.251C134.509 39.5225 134.71 39.4473 134.854 39.2968C134.998 39.1463 135.07 38.9654 135.07 38.7548C135.07 38.5335 135.001 38.3476 134.862 38.1971C134.723 38.0466 134.524 37.9713 134.266 37.9713H133.12V39.5225H133.119Z" fill="#2D3265"/>
<path d="M138.419 38.965C138.419 38.473 138.553 38.0461 138.821 37.6844C139.09 37.3227 139.444 37.0463 139.886 36.8554C140.327 36.6644 140.786 36.5259 141.263 36.4412C141.739 36.3564 142.235 36.3128 142.751 36.3128H142.974V36.1775C142.974 35.6045 142.612 35.3187 141.888 35.3187C141.213 35.3187 140.508 35.5653 139.774 36.0567L138.881 34.2184C139.228 33.9471 139.706 33.7112 140.317 33.5101C140.928 33.3097 141.53 33.2085 142.126 33.2085C143.188 33.2085 144.024 33.4899 144.635 34.0527C145.246 34.6155 145.55 35.3889 145.55 36.3735V41.1511H143.198V40.6837L143.228 40.2019H143.198C142.95 40.5535 142.62 40.8298 142.208 41.0309C141.796 41.232 141.367 41.3326 140.92 41.3326C140.185 41.3326 139.585 41.1068 139.119 40.6546C138.653 40.2012 138.419 39.6391 138.419 38.965ZM140.965 38.724C140.965 38.915 141.029 39.0731 141.159 39.1989C141.287 39.3241 141.466 39.3874 141.694 39.3874C142.051 39.3874 142.358 39.2419 142.617 38.9504C142.876 38.6589 143.004 38.3478 143.004 38.0158V37.8046H142.766C142.29 37.8046 141.87 37.8779 141.508 38.0234C141.145 38.1688 140.965 38.4021 140.965 38.724Z" fill="#2D3265"/>
<path d="M58.5107 56.221V48.46H60.9374V54.0356H62.6645V48.46H65.0912V54.0356H66.8183V48.46H69.245V56.221H58.5107Z" fill="#2D3265"/>
<path d="M70.9697 56.221V48.46H73.5451V51.1874H74.2746L75.7931 48.46H78.5915L76.3434 52.1524V52.1827L78.9044 56.2217H75.9718L74.349 53.3735H73.5451V56.2217H70.9697V56.221Z" fill="#2D3265"/>
<path d="M80.2749 55.2796C79.441 54.5309 79.0244 53.559 79.0244 52.3638C79.0244 51.1686 79.441 50.1884 80.2749 49.4252C81.1082 48.6619 82.1357 48.2793 83.3562 48.2793C84.5867 48.2793 85.6211 48.6587 86.46 49.4176C87.2989 50.1758 87.7186 51.1578 87.7186 52.3638C87.7186 53.5596 87.3014 54.5315 86.4681 55.2796C85.6342 56.0284 84.6024 56.4021 83.3718 56.4021C82.1401 56.4021 81.1082 56.0284 80.2749 55.2796ZM81.6291 52.3638C81.6291 52.9266 81.7984 53.3781 82.1357 53.7202C82.473 54.0623 82.8846 54.2331 83.3718 54.2331C83.8578 54.2331 84.2701 54.0617 84.6074 53.7202C84.9447 53.3787 85.1139 52.9266 85.1139 52.3638C85.1139 51.7909 84.9447 51.3286 84.6074 50.977C84.2701 50.6254 83.8584 50.4496 83.3718 50.4496C82.8853 50.4496 82.4736 50.6254 82.1357 50.977C81.7978 51.3286 81.6291 51.7902 81.6291 52.3638Z" fill="#2D3265"/>
<path d="M88.2227 56.2964V54.0205C88.3813 54.0009 88.5206 53.9681 88.6393 53.9225C88.7586 53.8776 88.8873 53.7923 89.0265 53.667C89.1658 53.5412 89.277 53.373 89.3614 53.1618C89.4457 52.9506 89.5175 52.6565 89.5775 52.2796C89.6368 51.9027 89.6668 51.4582 89.6668 50.9466V48.4595H95.9493V56.2206H93.374V50.5235H92.0935V50.9605C92.0935 52.6685 91.8005 53.9845 91.2153 54.909C90.6294 55.8348 89.6318 56.2964 88.2227 56.2964Z" fill="#2D3265"/>
<path d="M97.124 54.0358C97.124 53.5438 97.2583 53.1169 97.5263 52.7552C97.7949 52.3935 98.149 52.1172 98.5907 51.9262C99.0323 51.7352 99.4914 51.5967 99.968 51.512C100.445 51.4272 100.941 51.3836 101.456 51.3836H101.679V51.2483C101.679 50.6753 101.317 50.3895 100.593 50.3895C99.918 50.3895 99.2134 50.6361 98.4789 51.1275L97.5856 49.2892C97.9329 49.0179 98.4114 48.782 99.0223 48.5809C99.6332 48.3805 100.235 48.2793 100.831 48.2793C101.893 48.2793 102.729 48.5607 103.34 49.1235C103.951 49.6863 104.255 50.4597 104.255 51.4443V56.2219H101.903V55.7545L101.933 55.2727H101.903C101.655 55.6243 101.325 55.9006 100.913 56.1017C100.501 56.3028 100.072 56.4034 99.625 56.4034C98.8905 56.4034 98.2902 56.1776 97.8236 55.7255C97.3576 55.272 97.124 54.7099 97.124 54.0358ZM99.6706 53.7948C99.6706 53.9858 99.735 54.1439 99.8643 54.2697C99.993 54.3949 100.172 54.4582 100.4 54.4582C100.757 54.4582 101.064 54.3127 101.323 54.0212C101.581 53.7297 101.71 53.4186 101.71 53.0866V52.8754H101.471C100.995 52.8754 100.576 52.9487 100.213 53.0942C99.8512 53.2396 99.6706 53.473 99.6706 53.7948Z" fill="#2D3265"/>
<path d="M58.1123 71.9019L58.3715 71.6034C58.8356 72.0732 59.3834 72.3085 60.0149 72.3085C60.4316 72.3085 60.7726 72.1934 61.0381 71.9645C61.3029 71.7356 61.4353 71.4339 61.4353 71.0602C61.4353 70.7345 61.3254 70.4588 61.1055 70.2324C60.8844 70.0067 60.6189 69.8252 60.306 69.6905C59.9937 69.5545 59.6807 69.416 59.3684 69.2744C59.0555 69.1327 58.7888 68.9373 58.5689 68.6863C58.3484 68.4365 58.2385 68.1304 58.2385 67.7687C58.2385 67.2811 58.419 66.8872 58.7788 66.5887C59.1392 66.2902 59.5871 66.1416 60.123 66.1416C60.772 66.1416 61.2992 66.3376 61.7039 66.7291L61.4891 67.0636C61.3223 66.8948 61.1124 66.762 60.8594 66.6658C60.6065 66.5697 60.3547 66.521 60.1049 66.521C59.7001 66.521 59.3547 66.6323 59.0686 66.8549C58.7832 67.0788 58.6395 67.3735 58.6395 67.7409C58.6395 68.0482 58.75 68.3094 58.9699 68.5231C59.1904 68.7375 59.4565 68.9089 59.7694 69.0385C60.0818 69.1681 60.3947 69.3047 60.707 69.4495C61.0193 69.5944 61.2861 69.7961 61.5065 70.0553C61.727 70.3146 61.8363 70.634 61.8363 71.014C61.8363 71.5022 61.6708 71.9031 61.341 72.2162C61.0106 72.5298 60.5652 72.6867 60.0056 72.6867C59.2616 72.6885 58.6307 72.4261 58.1123 71.9019Z" fill="#030406"/>
<path d="M64.8198 72.58V66.6117H62.4893V66.25H67.535V66.6117H65.2045V72.58H64.8198Z" fill="#030406"/>
<path d="M68.5811 70.4102V66.2505H68.9646V70.3925C68.9646 70.9832 69.1401 71.4517 69.4918 71.7983C69.8434 72.1455 70.3163 72.3181 70.9116 72.3181C71.5068 72.3181 71.9822 72.1455 72.3363 71.7983C72.6899 71.4517 72.8679 70.9768 72.8679 70.3742V66.2505H73.252V70.4102C73.252 71.1033 73.0359 71.6566 72.6043 72.0696C72.1727 72.4819 71.6111 72.6887 70.9209 72.6887C70.2245 72.6887 69.6598 72.4806 69.2282 72.0645C68.7966 71.649 68.5811 71.097 68.5811 70.4102Z" fill="#030406"/>
<path d="M75.0918 72.58V66.25H77.0569C77.9976 66.25 78.7528 66.5301 79.3212 67.0911C79.8896 67.652 80.1738 68.426 80.1738 69.415C80.1738 70.4097 79.8908 71.1863 79.3255 71.744C78.7603 72.3018 78.0038 72.58 77.0569 72.58H75.0918ZM75.4753 72.2183H76.9944C77.8402 72.2183 78.5141 71.9742 79.017 71.486C79.5204 70.9985 79.7715 70.3079 79.7715 69.4156C79.7715 68.5297 79.5204 67.841 79.017 67.3491C78.5135 66.8583 77.8395 66.6123 76.9944 66.6123H75.4753V72.2183Z" fill="#030406"/>
<path d="M82.7545 72.58V69.8311L80.6289 66.25H81.0668L82.5497 68.746L82.9332 69.4599H82.9507C83.0818 69.1886 83.2099 68.9509 83.3348 68.746L84.8177 66.25H85.2549L83.1381 69.8311V72.58H82.7545Z" fill="#030406"/>
<path d="M85.5674 72.5799V72.0107H86.1121V72.5799H85.5674Z" fill="#030406"/>
<path d="M87.5869 70.4102V66.2505H87.9704V70.3925C87.9704 70.9832 88.146 71.4517 88.4976 71.7983C88.8493 72.1455 89.3221 72.3181 89.9174 72.3181C90.5127 72.3181 90.988 72.1455 91.3422 71.7983C91.6957 71.4517 91.8737 70.9768 91.8737 70.3742V66.2505H92.2579V70.4102C92.2579 71.1033 92.0418 71.6566 91.6102 72.0696C91.1785 72.4819 90.617 72.6887 89.9268 72.6887C89.2303 72.6887 88.6656 72.4806 88.234 72.0645C87.8024 71.649 87.5869 71.097 87.5869 70.4102Z" fill="#030406"/>
<path d="M93.2764 72.58L95.6169 66.25H96.0272L98.3671 72.58H97.9567L97.1435 70.392H94.4913L93.6874 72.58H93.2764ZM94.625 70.0303H97.0098L96.0629 67.4616L95.8305 66.7021H95.813C95.7231 67.0284 95.6456 67.2814 95.5806 67.4616L94.625 70.0303Z" fill="#030406"/>
</g>
<defs>
<clipPath id="clip0">
<rect width="150" height="88" fill="white"/>
</clipPath>
</defs>
</svg>
