<svg width="80" height="80" viewBox="0 0 80 80" fill="none" xmlns="http://www.w3.org/2000/svg">
<circle cx="40" cy="40" r="40" fill="#F6DF39"/>
<path d="M59.9066 32.4888C59.9079 32.4868 59.9094 32.4851 59.9107 32.4831C59.9133 32.4789 59.9152 32.4746 59.9177 32.4704C59.9238 32.4601 59.9297 32.4498 59.9351 32.4392C59.9388 32.432 59.9422 32.4248 59.9454 32.4176C59.9501 32.4075 59.9545 32.3974 59.9587 32.387C59.962 32.3788 59.9649 32.3705 59.9678 32.3622C59.971 32.3527 59.9741 32.3433 59.9768 32.3336C59.9796 32.324 59.982 32.3145 59.9842 32.3048C59.9862 32.2962 59.9881 32.2874 59.9897 32.2785C59.9917 32.2677 59.9933 32.257 59.9947 32.2462C59.9957 32.2382 59.9967 32.23 59.9973 32.2218C59.9984 32.2101 59.9988 32.1985 59.9991 32.1868C59.9993 32.1818 59.9999 32.1769 59.9999 32.1719C59.9999 32.169 59.9995 32.166 59.9995 32.163C59.9993 32.152 59.9986 32.1409 59.9978 32.1299C59.9972 32.121 59.9966 32.112 59.9955 32.1032C59.9944 32.0941 59.9929 32.0851 59.9914 32.0761C59.9897 32.0658 59.988 32.0554 59.9858 32.0453C59.9842 32.0379 59.9821 32.0306 59.9802 32.0234C59.9772 32.0121 59.9743 32.0008 59.9708 31.9899C59.9686 31.9831 59.9659 31.9765 59.9635 31.9699C59.9595 31.9589 59.9555 31.9479 59.9508 31.9372C59.9476 31.9297 59.9439 31.9226 59.9403 31.9153C59.9357 31.9059 59.9313 31.8965 59.9262 31.8873C59.9213 31.8785 59.9159 31.8702 59.9106 31.8616C59.9061 31.8544 59.9018 31.847 59.8969 31.84C59.8905 31.8307 59.8834 31.8217 59.8765 31.8127C59.8719 31.8068 59.8676 31.8009 59.8629 31.7952C59.8556 31.7865 59.8477 31.7783 59.8399 31.77C59.8346 31.7643 59.8294 31.7585 59.8239 31.7531C59.8166 31.7459 59.8088 31.7392 59.8012 31.7324C59.7941 31.7261 59.7871 31.7199 59.7797 31.714C59.773 31.7086 59.7659 31.7036 59.759 31.6985C59.7498 31.6918 59.7407 31.6853 59.7311 31.6791C59.7287 31.6775 59.7265 31.6756 59.724 31.6742L54.7142 28.543C54.7108 28.5409 54.7072 28.5393 54.7038 28.5373C54.6968 28.5331 54.69 28.5289 54.6829 28.525C54.6785 28.5227 54.6741 28.5205 54.6697 28.5183C54.6627 28.5147 54.6556 28.5114 54.6484 28.5081C54.6427 28.5055 54.637 28.5027 54.6312 28.5002C54.6271 28.4985 54.623 28.497 54.6189 28.4955C54.6094 28.4917 54.5998 28.4882 54.5902 28.485C54.5867 28.4839 54.5834 28.4823 54.5798 28.4812C54.5787 28.4809 54.5776 28.4807 54.5766 28.4803C54.5732 28.4793 54.5697 28.4785 54.5663 28.4774C54.5551 28.4742 54.5439 28.4714 54.5326 28.4688C54.5283 28.4679 54.5241 28.4666 54.5198 28.4657C54.5169 28.4652 54.5141 28.4649 54.5113 28.4644C54.4999 28.4623 54.4885 28.4605 54.4769 28.4591C54.4687 28.458 54.4605 28.457 54.4522 28.4563C54.4421 28.4555 54.4321 28.455 54.422 28.4547C54.4124 28.4544 54.4027 28.4541 54.3932 28.4543C54.3844 28.4544 54.3757 28.4549 54.367 28.4555C54.3635 28.4557 54.3601 28.4557 54.3566 28.4559C54.3544 28.4561 54.3521 28.456 54.3498 28.4562C54.345 28.4567 54.3404 28.4576 54.3357 28.4581C54.3276 28.4591 54.3195 28.4603 54.3115 28.4616C54.3088 28.4619 54.3061 28.4623 54.3036 28.4627C54.3 28.4634 54.2964 28.4636 54.2928 28.4643C54.2885 28.4652 54.2842 28.4664 54.2799 28.4673C54.2719 28.4691 54.2639 28.4712 54.2558 28.4732C54.2458 28.4758 54.2359 28.4785 54.2261 28.4816C54.2175 28.4843 54.209 28.4874 54.2005 28.4905C54.1943 28.4928 54.1879 28.4947 54.1818 28.4973C54.1793 28.4983 54.1768 28.4997 54.1742 28.5008C54.165 28.5046 54.1561 28.5089 54.1472 28.5132C54.1411 28.5162 54.1348 28.5189 54.1288 28.5221C54.1281 28.5224 54.1274 28.5226 54.1268 28.523L45.1588 33.3059L39.8281 26.7906C39.8279 26.7902 39.8276 26.79 39.8273 26.7897C39.8257 26.7877 39.824 26.7857 39.8222 26.7837C39.8181 26.7787 39.8135 26.7743 39.8092 26.7695C39.8009 26.7603 39.7926 26.751 39.7837 26.7423C39.7786 26.7372 39.7728 26.7326 39.7674 26.7277C39.7589 26.72 39.7505 26.7121 39.7415 26.7048C39.733 26.698 39.7239 26.6919 39.7151 26.6854C39.7144 26.685 39.7137 26.6844 39.713 26.6839C39.7072 26.6798 39.7015 26.6753 39.6955 26.6713C39.6865 26.6653 39.6769 26.6601 39.6675 26.6547C39.6604 26.6505 39.6534 26.6461 39.6461 26.6422C39.6373 26.6376 39.6281 26.6338 39.619 26.6296C39.6106 26.6258 39.6024 26.6216 39.5939 26.6181C39.5858 26.6148 39.5773 26.6122 39.5689 26.6093C39.559 26.6058 39.5491 26.6021 39.539 26.5992C39.5378 26.5988 39.5365 26.5982 39.5353 26.5979C39.5263 26.5953 39.5174 26.5938 39.5085 26.5917C39.5004 26.5898 39.4924 26.5876 39.4842 26.586C39.4808 26.5854 39.4774 26.5846 39.474 26.584L21.9427 23.4531C21.9369 23.4521 21.9312 23.4518 21.9254 23.4509C21.9148 23.4493 21.9043 23.4479 21.8938 23.4468C21.8841 23.4459 21.8745 23.4454 21.8649 23.445C21.8557 23.4446 21.8466 23.4443 21.8374 23.4443C21.8269 23.4443 21.8165 23.4447 21.8061 23.4454C21.7977 23.4458 21.7891 23.4464 21.7807 23.4472C21.7702 23.4483 21.7598 23.4497 21.7494 23.4513C21.7408 23.4526 21.7323 23.4541 21.7238 23.4558C21.7139 23.4577 21.7042 23.46 21.6945 23.4625C21.6855 23.4648 21.6765 23.4673 21.6676 23.47C21.6586 23.4728 21.6498 23.4757 21.6409 23.4789C21.6316 23.4823 21.6225 23.4858 21.6133 23.4897C21.6049 23.4932 21.5966 23.497 21.5883 23.5009C21.5794 23.5052 21.5706 23.5095 21.5618 23.5142C21.5533 23.5189 21.545 23.5237 21.5368 23.5287C21.5288 23.5335 21.5209 23.5383 21.5132 23.5435C21.5041 23.5496 21.4953 23.556 21.4867 23.5626C21.4821 23.5661 21.4773 23.569 21.4728 23.5726C21.4707 23.5743 21.469 23.5762 21.4668 23.5779C21.4581 23.5851 21.4497 23.5928 21.4413 23.6005C21.4353 23.6061 21.4291 23.6115 21.4233 23.6173C21.4158 23.6248 21.4088 23.6328 21.4017 23.6407C21.3959 23.6473 21.3898 23.6537 21.3843 23.6605C21.3781 23.6681 21.3723 23.6763 21.3664 23.6843C21.3609 23.6918 21.3553 23.6991 21.3502 23.7067C21.3449 23.7148 21.3401 23.7232 21.3352 23.7315C21.3303 23.7397 21.3253 23.7477 21.3209 23.756C21.3166 23.7643 21.3127 23.7729 21.3087 23.7815C21.3046 23.7903 21.3003 23.7991 21.2966 23.8081C21.2932 23.8164 21.2903 23.825 21.2873 23.8335C21.2838 23.8432 21.2802 23.8529 21.2773 23.8628C21.2749 23.871 21.273 23.8794 21.2708 23.8878C21.2682 23.8984 21.2655 23.909 21.2635 23.9197C21.2629 23.9225 21.2621 23.9251 21.2616 23.9279C21.2605 23.9338 21.2602 23.9397 21.2593 23.9456C21.2578 23.956 21.2564 23.9663 21.2554 23.9767C21.2545 23.9864 21.254 23.996 21.2536 24.0057C21.2532 24.0149 21.2529 24.0241 21.2529 24.0334C21.2529 24.0437 21.2534 24.054 21.2539 24.0642C21.2544 24.0729 21.255 24.0815 21.2559 24.0902C21.2569 24.1005 21.2583 24.1107 21.2599 24.1209C21.2612 24.1297 21.2628 24.1384 21.2645 24.1471C21.2665 24.1568 21.2686 24.1664 21.2712 24.1759C21.2735 24.1851 21.276 24.1942 21.2787 24.2032C21.2815 24.2121 21.2845 24.2209 21.2876 24.2295C21.291 24.2389 21.2945 24.2482 21.2983 24.2573C21.3018 24.2657 21.3056 24.274 21.3095 24.2822C21.3137 24.2911 21.3181 24.3 21.3228 24.3088C21.3274 24.3173 21.3323 24.3255 21.3372 24.3338C21.342 24.3418 21.3468 24.3497 21.3521 24.3574C21.3581 24.3664 21.3645 24.3751 21.371 24.3837C21.3745 24.3884 21.3775 24.3932 21.3811 24.3978L25.1269 29.08H20.5871C20.5818 29.08 20.5767 29.0806 20.5714 29.0807C20.5606 29.081 20.5498 29.0815 20.539 29.0824C20.5295 29.0832 20.5202 29.0843 20.5108 29.0854C20.5017 29.0866 20.4925 29.088 20.4834 29.0896C20.4731 29.0914 20.4629 29.0936 20.4528 29.0959C20.4447 29.0978 20.4366 29.0999 20.4286 29.1022C20.4182 29.1051 20.408 29.1082 20.3978 29.1117C20.3899 29.1144 20.3821 29.1173 20.3742 29.1203C20.3646 29.1241 20.3551 29.128 20.3458 29.1322C20.3375 29.136 20.3293 29.14 20.3212 29.1441C20.3128 29.1484 20.3045 29.1528 20.2964 29.1575C20.2877 29.1625 20.2791 29.1677 20.2707 29.1731C20.2634 29.1778 20.2563 29.1826 20.2492 29.1875C20.2406 29.1935 20.2323 29.1999 20.224 29.2064C20.2172 29.2118 20.2107 29.2172 20.2043 29.2227C20.1966 29.2295 20.1889 29.2364 20.1814 29.2435C20.1746 29.25 20.1681 29.2566 20.1616 29.2634C20.1552 29.2702 20.149 29.2771 20.1429 29.2842C20.1357 29.2925 20.1289 29.301 20.1223 29.3097C20.1191 29.3138 20.1156 29.3175 20.1125 29.3218C20.1107 29.3243 20.1093 29.3268 20.1076 29.3293C20.1008 29.3389 20.0946 29.3487 20.0885 29.3585C20.0843 29.3653 20.08 29.372 20.0762 29.3788C20.0708 29.3884 20.0658 29.3983 20.0609 29.4082C20.0571 29.4158 20.0533 29.4234 20.0499 29.4311C20.0458 29.4403 20.0423 29.4498 20.0387 29.4593C20.0354 29.468 20.0319 29.4767 20.029 29.4855C20.0262 29.4942 20.0239 29.5031 20.0214 29.512C20.0187 29.5219 20.016 29.5318 20.0139 29.5417C20.0121 29.5499 20.0108 29.5583 20.0093 29.5666C20.0074 29.5775 20.0056 29.5884 20.0043 29.5993C20.0034 29.6072 20.0029 29.6152 20.0023 29.6233C20.0015 29.6348 20.0008 29.6464 20.0006 29.6579C20.0004 29.6609 20 29.6639 20 29.667C20 29.6724 20.0006 29.6774 20.0008 29.6827C20.0011 29.6935 20.0015 29.7043 20.0024 29.7151C20.0032 29.7246 20.0043 29.7339 20.0055 29.7433C20.0067 29.7525 20.0081 29.7617 20.0097 29.7708C20.0115 29.781 20.0137 29.7912 20.016 29.8013C20.018 29.8095 20.02 29.8176 20.0223 29.8257C20.0252 29.836 20.0283 29.8461 20.0318 29.8562C20.0345 29.8643 20.0374 29.8722 20.0405 29.8801C20.0442 29.8896 20.0481 29.899 20.0523 29.9082C20.0561 29.9167 20.0602 29.925 20.0643 29.9333C20.0686 29.9416 20.0729 29.9497 20.0774 29.9577C20.0824 29.9665 20.0878 29.9752 20.0933 29.9838C20.0978 29.9909 20.1025 29.998 20.1074 30.0049C20.1135 30.0136 20.1199 30.0221 20.1266 30.0305C20.1318 30.0371 20.1371 30.0436 20.1426 30.0499C20.1494 30.0577 20.1563 30.0654 20.1636 30.0729C20.17 30.0796 20.1767 30.0861 20.1835 30.0926C20.1903 30.099 20.1971 30.1053 20.2043 30.1115C20.2126 30.1186 20.2211 30.1254 20.2297 30.132C20.2339 30.1352 20.2376 30.1387 20.2419 30.1418L33.7295 39.9509L31.2802 55.8716C31.2798 55.8735 31.2796 55.8753 31.2793 55.8773L31.279 55.8792C31.2786 55.8816 31.2786 55.8839 31.2783 55.8864C31.2759 55.903 31.2741 55.9197 31.2731 55.9363C31.2727 55.9429 31.273 55.9493 31.2728 55.9558C31.2726 55.9682 31.2723 55.9807 31.2727 55.9931C31.2731 56.0028 31.2742 56.0122 31.2751 56.0218C31.2759 56.0309 31.2765 56.0399 31.2777 56.0489C31.2793 56.0601 31.2816 56.0712 31.2838 56.0822C31.2852 56.0896 31.2864 56.097 31.2882 56.1043C31.2909 56.1156 31.2942 56.1265 31.2975 56.1376C31.2996 56.1447 31.3016 56.1518 31.304 56.1589C31.3076 56.169 31.3116 56.179 31.3157 56.189C31.3188 56.1967 31.3218 56.2046 31.3253 56.2122C31.3292 56.2207 31.3336 56.229 31.3379 56.2373C31.3425 56.2461 31.3468 56.2548 31.3518 56.2634C31.3558 56.2702 31.3602 56.2768 31.3645 56.2835C31.3704 56.2929 31.3764 56.3023 31.3829 56.3114C31.3871 56.3171 31.3915 56.3226 31.3959 56.3282C31.4031 56.3376 31.4104 56.3469 31.4183 56.3559C31.423 56.3612 31.4281 56.3662 31.433 56.3715C31.4409 56.3799 31.4488 56.3884 31.4574 56.3963C31.4637 56.4023 31.4705 56.4079 31.4772 56.4136C31.4847 56.4201 31.4921 56.4266 31.5 56.4327C31.5097 56.4403 31.5198 56.4471 31.53 56.454C31.5356 56.4577 31.5408 56.4617 31.5465 56.4652C31.5606 56.4742 31.5753 56.4823 31.5904 56.49C31.5925 56.4911 31.5944 56.4924 31.5965 56.4935C31.5967 56.4936 31.5969 56.4937 31.5972 56.4938C31.617 56.5037 31.6374 56.5124 31.6585 56.5201C31.6637 56.522 31.669 56.5233 31.6743 56.525C31.6887 56.5298 31.7032 56.5343 31.7182 56.538C31.7281 56.5405 31.7379 56.5422 31.7478 56.5441C31.7551 56.5455 31.7623 56.5475 31.7698 56.5487C31.7723 56.5491 31.7747 56.5489 31.7772 56.5492C31.8044 56.5531 31.8315 56.5556 31.8586 56.5556C31.8589 56.5556 31.8593 56.5556 31.8595 56.5556C31.8596 56.5556 31.8597 56.5556 31.8598 56.5556C31.8841 56.5556 31.9079 56.5535 31.9317 56.5506C31.9364 56.5499 31.941 56.5494 31.9457 56.5487C31.9941 56.5415 32.0409 56.5282 32.0852 56.5097C32.0896 56.5079 32.0938 56.5062 32.098 56.5043C32.1195 56.4947 32.1404 56.4841 32.1605 56.472C32.1641 56.4699 32.1676 56.4673 32.1712 56.4651C32.1881 56.4544 32.2044 56.4429 32.2201 56.4307C32.2248 56.4271 32.2295 56.4236 32.2341 56.4198C32.2515 56.4054 32.2681 56.3898 32.2838 56.3733C32.2877 56.3691 32.2915 56.3648 32.2953 56.3606C32.3112 56.343 32.3262 56.3247 32.3399 56.3053C32.3403 56.3047 32.3408 56.3041 32.3412 56.3036C32.356 56.2823 32.3691 56.2598 32.3811 56.2364C32.382 56.2345 32.3833 56.2329 32.3843 56.231L36.6724 47.6547L50.8799 41.4775C50.8838 41.4759 50.8872 41.4738 50.891 41.472C50.9023 41.4668 50.9135 41.4613 50.9245 41.4554C50.9256 41.4548 50.9267 41.4544 50.9277 41.4538C50.9295 41.4529 50.9313 41.4522 50.9331 41.4511C50.9372 41.4489 50.941 41.4461 50.945 41.4438C50.9539 41.4385 50.9627 41.4331 50.9712 41.4273C50.9768 41.4236 50.9825 41.4201 50.988 41.4162C50.9901 41.4147 50.9921 41.4129 50.9942 41.4114C51.0006 41.4067 51.0069 41.4018 51.0131 41.3967C51.0146 41.3956 51.0163 41.3948 51.0178 41.3935C51.0193 41.3923 51.0206 41.3909 51.0221 41.3896C51.0276 41.3851 51.0328 41.3805 51.038 41.3757C51.0432 41.371 51.0482 41.3661 51.0532 41.3614C51.0535 41.361 51.0539 41.3608 51.0542 41.3605C51.0564 41.3584 51.0587 41.3566 51.0609 41.3544C51.0625 41.3527 51.064 41.351 51.0657 41.3494C51.0696 41.3453 51.0734 41.3412 51.0773 41.3371C51.0821 41.3318 51.0867 41.3263 51.0914 41.3208C51.096 41.3156 51.1007 41.3104 51.105 41.305C51.1075 41.3019 51.1098 41.2987 51.1123 41.2956C51.1142 41.2931 51.1162 41.2906 51.118 41.2881C51.1201 41.2853 51.1219 41.2823 51.1239 41.2795C51.1245 41.2786 51.1251 41.2777 51.1257 41.2768C51.1303 41.2704 51.135 41.2641 51.1392 41.2575C51.1405 41.2554 51.1418 41.2533 51.1432 41.2512C51.1477 41.2439 51.1519 41.2364 51.1561 41.229C51.1601 41.2219 51.1642 41.2151 51.1679 41.2079C51.1681 41.2076 51.1683 41.2073 51.1685 41.2069C51.169 41.2058 51.1695 41.2047 51.1701 41.2036C51.1743 41.1953 51.1781 41.1865 51.1819 41.1779C51.185 41.1708 51.1884 41.1639 51.1912 41.1567C51.1917 41.1555 51.1923 41.1543 51.1927 41.1531C51.1963 41.1439 51.1993 41.1344 51.2024 41.125C51.2029 41.1236 51.2034 41.1223 51.2038 41.121C51.2044 41.1192 51.2053 41.1177 51.2059 41.116L51.2082 41.1084C51.2083 41.1083 51.2083 41.1081 51.2084 41.108L53.8449 32.7592H59.4114C59.4118 32.7592 59.4122 32.7592 59.4125 32.7592C59.4139 32.7592 59.4152 32.759 59.4165 32.759C59.4382 32.7589 59.4595 32.7574 59.4805 32.755C59.4865 32.7543 59.4924 32.7532 59.4982 32.7524C59.5153 32.7499 59.5321 32.7468 59.5486 32.7429C59.5547 32.7415 59.5607 32.7398 59.5667 32.7382C59.5836 32.7337 59.6002 32.7283 59.6164 32.7223C59.6214 32.7204 59.6266 32.7187 59.6317 32.7167C59.6528 32.7082 59.6733 32.6989 59.6931 32.6882C59.6936 32.6879 59.6941 32.6875 59.6946 32.6873C59.7133 32.6771 59.7312 32.6656 59.7486 32.6534C59.7552 32.6488 59.7616 32.6439 59.7679 32.639C59.7796 32.6302 59.7908 32.6209 59.8017 32.6113C59.808 32.6057 59.8142 32.6003 59.8203 32.5944C59.8348 32.5805 59.8485 32.5659 59.8614 32.5506C59.8629 32.5488 59.8645 32.5473 59.866 32.5456C59.8807 32.5275 59.894 32.5084 59.9066 32.4888ZM53.4101 30.2358L50.4128 39.7272L45.9169 34.2322L53.4101 30.2358ZM23.2733 24.8834L38.561 27.6133L34.1931 38.5331L23.2733 24.8834ZM49.3222 40.2484L35.2059 39.1625L39.5494 28.3039L49.3222 40.2484ZM36.6441 46.3866L35.1311 40.3344L48.2441 41.3431L36.6441 46.3866ZM35.6204 47.1329L33.0088 52.3563L34.5011 42.6558L35.6204 47.1329ZM31.1775 36.6432L22.3925 30.2541H26.0662L31.1775 36.6432ZM54.7347 29.9404L57.3659 31.5848H54.2154L54.7347 29.9404Z" fill="#010101"/>
</svg>
