<svg width="80" height="80" viewBox="0 0 80 80" fill="none" xmlns="http://www.w3.org/2000/svg">
<circle cx="40" cy="40" r="40" fill="#F6DF39"/>
<g clip-path="url(#clip0)">
<path d="M33.0397 39.3909C34.7696 39.3909 36.1769 37.9835 36.1769 36.2536C36.1769 34.5236 34.7695 33.1162 33.0397 33.1162C31.3097 33.1162 29.9023 34.5236 29.9023 36.2536C29.9023 37.9835 31.3097 39.3909 33.0397 39.3909V39.3909ZM33.0397 34.2881C34.1234 34.2881 35.0051 35.1698 35.0051 36.2536C35.0051 37.3373 34.1234 38.219 33.0397 38.219C31.9559 38.219 31.0742 37.3373 31.0742 36.2536C31.0742 35.1698 31.9559 34.2881 33.0397 34.2881Z" fill="#010101"/>
<path d="M39.9479 36.1073C41.6357 36.1073 43.009 34.7341 43.009 33.0462C43.009 31.3583 41.6358 29.9851 39.9479 29.9851C38.26 29.9851 36.8867 31.3583 36.8867 33.0462C36.8867 34.7341 38.26 36.1073 39.9479 36.1073V36.1073ZM39.9479 31.157C40.9896 31.157 41.8371 32.0045 41.8371 33.0462C41.8371 34.0879 40.9896 34.9354 39.9479 34.9354C38.9062 34.9354 38.0586 34.0879 38.0586 33.0462C38.0586 32.0045 38.9062 31.157 39.9479 31.157V31.157Z" fill="#010101"/>
<path d="M34.2995 54.256C35.9873 54.256 37.3605 52.8828 37.3605 51.1949C37.3605 49.507 35.9873 48.1338 34.2995 48.1338C32.6116 48.1338 31.2383 49.507 31.2383 51.1949C31.2383 52.8828 32.6116 54.256 34.2995 54.256V54.256ZM34.2995 49.3057C35.3412 49.3057 36.1887 50.1532 36.1887 51.195C36.1887 52.2367 35.3412 53.0842 34.2995 53.0842C33.2577 53.0842 32.4102 52.2367 32.4102 51.195C32.4102 50.1532 33.2577 49.3057 34.2995 49.3057Z" fill="#010101"/>
<path d="M41.5084 56.569C43.1963 56.569 44.5695 55.1958 44.5695 53.5079C44.5695 51.82 43.1963 50.4468 41.5084 50.4468C39.8205 50.4468 38.4473 51.82 38.4473 53.5079C38.4473 55.1958 39.8205 56.569 41.5084 56.569ZM41.5084 51.6187C42.5502 51.6187 43.3977 52.4662 43.3977 53.5079C43.3977 54.5496 42.5502 55.3971 41.5084 55.3971C40.4667 55.3971 39.6191 54.5496 39.6191 53.5079C39.6191 52.4662 40.4667 51.6187 41.5084 51.6187Z" fill="#010101"/>
<path d="M26.6367 43.9782C26.6367 45.948 28.2392 47.5504 30.2089 47.5504C32.1787 47.5504 33.7812 45.948 33.7812 43.9782C33.7812 42.0085 32.1787 40.406 30.2089 40.406C28.2392 40.406 26.6367 42.0085 26.6367 43.9782ZM30.2089 41.5779C31.5324 41.5779 32.6093 42.6546 32.6093 43.9782C32.6093 45.3018 31.5325 46.3786 30.2089 46.3786C28.8854 46.3786 27.8086 45.3018 27.8086 43.9782C27.8086 42.6546 28.8854 41.5779 30.2089 41.5779Z" fill="#010101"/>
<path d="M23.6055 43.3638C23.6055 52.2027 31.22 58.9213 40.1055 59.4625C40.1176 59.4632 40.1297 59.4636 40.1417 59.4636C40.449 59.4636 40.7071 59.2242 40.726 58.9133C40.7457 58.5903 40.4997 58.3125 40.1768 58.2928C31.5415 57.7668 24.7773 51.2093 24.7773 43.3638C24.7773 34.4749 33.2407 27.6162 42.9124 28.4923C43.3524 28.9508 43.8938 29.3183 44.4604 29.5872C44.4139 29.8014 44.422 30.0298 44.4783 30.2363L45.6379 34.5016C45.3679 34.8172 45.2741 35.2468 45.3819 35.6423L45.6579 36.6578C45.8258 37.2763 46.4438 37.6719 47.0755 37.5624L47.6228 39.9326C45.6436 40.8342 44.5614 42.0416 44.5614 43.3639C44.5614 44.6908 45.6675 45.9183 47.6759 46.82C48.3901 47.1406 49.0081 47.5801 49.5151 48.1272C50.1596 50.9565 50.3578 51.8543 50.8302 53.2766C50.3929 55.1842 49.0852 56.6465 47.2219 57.3027C45.8002 57.8033 44.3205 58.124 42.8241 58.2559C42.5017 58.2843 42.2634 58.5686 42.2918 58.891C42.3202 59.2134 42.6056 59.4513 42.9269 59.4232C44.5209 59.2828 46.097 58.9412 47.6111 58.408C49.3348 57.8011 50.6957 56.5714 51.4632 54.9858C52.2468 56.9083 52.961 58.0963 53.625 59.2542C53.9606 59.8397 54.6499 60.125 55.3014 59.9479C55.9527 59.7708 56.4027 59.1758 56.3959 58.5008C56.3757 56.538 56.4274 53.5875 55.0484 49.1914C54.9515 48.8826 54.6228 48.7109 54.3139 48.8077C54.0052 48.9046 53.8335 49.2334 53.9303 49.5422C55.2248 53.6684 55.2024 56.4059 55.2241 58.5128C55.2256 58.6547 55.131 58.7798 54.9941 58.8171C54.8574 58.8543 54.7122 58.7943 54.6416 58.6712C52.1763 54.372 51.8657 53.0967 50.6229 47.7157C50.6229 47.7157 48.2085 37.2601 48.2085 37.26L49.9303 36.7919L50.803 39.5735V39.5735L53.1115 46.9322C53.2084 47.2409 53.537 47.4127 53.846 47.3159C54.1547 47.219 54.3265 46.8902 54.2296 46.5814L52.0929 39.7703C55.3212 38.4623 56.2242 34.1266 53.4604 31.7131C52.3279 30.7241 51.0583 29.8805 49.6861 29.1987L49.5902 28.8462C49.5317 28.6308 49.4235 28.4376 49.2763 28.2781C49.8677 27.4048 50.4579 26.054 50.0281 24.4732C49.6156 22.956 48.6013 22.3706 47.5275 21.7509C46.8763 21.3751 46.2029 20.9864 45.5532 20.3398C44.9219 19.7117 43.8791 19.9938 43.6524 20.8565C43.4196 21.7431 43.0356 22.4193 42.6643 23.0732C42.0453 24.1632 41.2915 25.4318 42.0899 27.2644C32.1436 26.8362 23.6055 34.0504 23.6055 43.3638V43.3638ZM49.0821 46.2525C48.79 46.0653 48.4815 45.8971 48.1559 45.751C46.6162 45.0596 45.7332 44.1896 45.7332 43.3638C45.7332 42.5777 46.5111 41.7702 47.8924 41.1002L49.0821 46.2525ZM52.6895 32.5959C54.7638 34.4072 54.0948 37.6379 51.7412 38.6496C51.1359 36.7206 51.3001 37.2436 51.0601 36.4789C51.673 36.2443 51.9893 35.5875 51.8245 34.9811L51.5485 33.9656C51.4403 33.5681 51.1401 33.2461 50.75 33.1117L50.1084 30.7521C51.0322 31.2862 51.8966 31.9035 52.6895 32.5959ZM50.3212 34.2178L50.3214 34.2177C50.3591 34.2076 50.4055 34.2282 50.4176 34.2731L50.6936 35.2884C50.705 35.3303 50.6802 35.3736 50.6384 35.3849C49.8543 35.5981 47.5999 36.211 46.885 36.4054C46.8441 36.4168 46.8002 36.3927 46.7886 36.3501L46.5125 35.3347C46.5004 35.2899 46.5311 35.2481 46.5678 35.2382L50.3212 34.2178ZM49.5622 33.2098L46.7118 33.9847L45.6091 29.9287C45.5806 29.8244 45.646 29.7158 45.7468 29.6883L48.2191 29.0161C48.3151 28.9898 48.4292 29.0422 48.4595 29.1537C48.8221 30.4877 48.5678 29.5521 49.5622 33.2098ZM43.6834 23.652C44.0648 22.9805 44.4958 22.2212 44.7703 21.2138C45.5144 21.9423 46.272 22.3794 46.9418 22.7661C47.9112 23.3255 48.6116 23.7297 48.8974 24.7809C49.2467 26.0654 48.6453 27.1854 48.1472 27.843C48.0717 27.8498 47.9834 27.8659 47.9115 27.8854L45.4392 28.5576C45.3638 28.578 45.2774 28.6106 45.2147 28.6402C44.1783 28.2148 43.3136 27.4699 43.0172 26.3796C42.7314 25.3284 43.1307 24.6252 43.6834 23.652Z" fill="#010101"/>
</g>
<defs>
<clipPath id="clip0">
<rect width="40" height="40" fill="white" transform="translate(20 20)"/>
</clipPath>
</defs>
</svg>
