<svg width="80" height="80" viewBox="0 0 80 80" fill="none" xmlns="http://www.w3.org/2000/svg">
<circle cx="40" cy="40" r="40" fill="#F6DF39"/>
<g clip-path="url(#clip0)">
<path d="M58.6692 29.1635C57.8707 28.327 56.7681 27.8327 55.5133 27.8327H49.2015V27.7566C49.2015 26.8061 48.8213 25.8935 48.1749 25.2852C47.5285 24.6388 46.654 24.2585 45.7034 24.2585H34.2966C33.308 24.2585 32.4335 24.6388 31.7871 25.2852C31.1407 25.9315 30.7605 26.8061 30.7605 27.7566V27.8327H24.4867C23.2319 27.8327 22.1293 28.327 21.3308 29.1635C20.5323 29.962 20 31.1027 20 32.3194V51.2547C20 52.5095 20.4943 53.6122 21.3308 54.4106C22.1293 55.2091 23.27 55.7414 24.4867 55.7414H55.5133C56.7681 55.7414 57.8707 55.2471 58.6692 54.4106C59.4677 53.6122 60 52.4715 60 51.2547V32.3194C60 31.0646 59.5057 29.962 58.6692 29.1635ZM58.0228 51.2547H57.9848C57.9848 51.9392 57.7186 52.5475 57.2624 53.0038C56.8061 53.4601 56.1977 53.7262 55.5133 53.7262H24.4867C23.8023 53.7262 23.1939 53.4601 22.7376 53.0038C22.2814 52.5475 22.0152 51.9392 22.0152 51.2547V32.3194C22.0152 31.635 22.2814 31.0266 22.7376 30.5703C23.1939 30.1141 23.8023 29.8479 24.4867 29.8479H31.8251C32.3954 29.8479 32.8517 29.3916 32.8517 28.8213V27.7186C32.8517 27.3004 33.0038 26.9201 33.27 26.654C33.5361 26.3878 33.9164 26.2357 34.3346 26.2357H45.7034C46.1217 26.2357 46.5019 26.3878 46.7681 26.654C47.0342 26.9201 47.1863 27.3004 47.1863 27.7186V28.8213C47.1863 29.3916 47.6426 29.8479 48.2129 29.8479H55.5513C56.2357 29.8479 56.8441 30.1141 57.3004 30.5703C57.7567 31.0266 58.0228 31.635 58.0228 32.3194V51.2547Z" fill="#010101"/>
<path d="M40.0001 32.4333C37.4145 32.4333 35.0571 33.498 33.3841 35.171C31.6731 36.882 30.6465 39.2014 30.6465 41.787C30.6465 44.3725 31.7111 46.7299 33.3841 48.4029C35.0952 50.114 37.4145 51.1406 40.0001 51.1406C42.5856 51.1406 44.9431 50.0759 46.6161 48.4029C48.3271 46.6919 49.3537 44.3725 49.3537 41.787C49.3537 39.2014 48.2891 36.844 46.6161 35.171C44.9431 33.498 42.5856 32.4333 40.0001 32.4333ZM45.1712 46.9961C43.8404 48.2889 42.0153 49.1254 40.0001 49.1254C37.9849 49.1254 36.1598 48.2889 34.829 46.9961C33.4982 45.6653 32.6997 43.8402 32.6997 41.825C32.6997 39.8098 33.5362 37.9847 34.829 36.6539C36.1598 35.3231 37.9849 34.5246 40.0001 34.5246C42.0153 34.5246 43.8404 35.3611 45.1712 36.6539C46.502 37.9847 47.3005 39.8098 47.3005 41.825C47.3385 43.8402 46.502 45.6653 45.1712 46.9961Z" fill="#010101"/>
<path d="M53.5369 36.1217C54.5659 36.1217 55.4001 35.2876 55.4001 34.2586C55.4001 33.2297 54.5659 32.3955 53.5369 32.3955C52.508 32.3955 51.6738 33.2297 51.6738 34.2586C51.6738 35.2876 52.508 36.1217 53.5369 36.1217Z" fill="#010101"/>
</g>
<defs>
<clipPath id="clip0">
<rect width="40" height="40" fill="white" transform="translate(20 20)"/>
</clipPath>
</defs>
</svg>
