<svg width="80" height="80" viewBox="0 0 80 80" fill="none" xmlns="http://www.w3.org/2000/svg">
<circle cx="40" cy="40" r="40" fill="#F6DF39"/>
<path d="M29.1204 24.089C28.3993 24.0897 27.7079 24.3522 27.198 24.8188C26.688 25.2854 26.4012 25.918 26.4004 26.5779V49.6001H27.7604V26.5779C27.7608 26.2479 27.9042 25.9316 28.1592 25.6984C28.4142 25.4651 28.7598 25.3338 29.1204 25.3334H29.8004C29.8012 25.9933 30.088 26.6259 30.598 27.0925C31.1079 27.5591 31.7992 27.8216 32.5204 27.8223H33.2004V26.5779H32.5204C32.1598 26.5775 31.8142 26.4462 31.5592 26.213C31.3042 25.9797 31.1608 25.6634 31.1604 25.3334V24.089C31.1604 23.7589 31.3037 23.4424 31.5587 23.209C31.8138 22.9757 32.1597 22.8445 32.5204 22.8445C32.8811 22.8445 33.227 22.9757 33.4821 23.209C33.7371 23.4424 33.8804 23.7589 33.8804 24.089H32.5204V25.3334H37.2804C37.2812 25.9933 37.568 26.6259 38.078 27.0925C38.5879 27.5591 39.2792 27.8216 40.0004 27.8223H40.6804V26.5779H40.0004C39.6398 26.5775 39.2942 26.4462 39.0392 26.213C38.7842 25.9797 38.6408 25.6634 38.6404 25.3334V24.089C38.6404 23.7589 38.7837 23.4424 39.0387 23.209C39.2938 22.9757 39.6397 22.8445 40.0004 22.8445C40.3611 22.8445 40.707 22.9757 40.9621 23.209C41.2171 23.4424 41.3604 23.7589 41.3604 24.089H40.0004V25.3334H44.7604C44.7612 25.9933 45.048 26.6259 45.558 27.0925C46.0679 27.5591 46.7592 27.8216 47.4804 27.8223H48.1604V26.5779H47.4804C47.1198 26.5775 46.7742 26.4462 46.5192 26.213C46.2642 25.9797 46.1208 25.6634 46.1204 25.3334V24.089C46.1204 23.7589 46.2637 23.4424 46.5187 23.209C46.7738 22.9757 47.1197 22.8445 47.4804 22.8445C47.8411 22.8445 48.187 22.9757 48.4421 23.209C48.6971 23.4424 48.8404 23.7589 48.8404 24.089H47.4804V25.3334H50.8804C51.241 25.3338 51.5866 25.4651 51.8416 25.6984C52.0965 25.9316 52.24 26.2479 52.2404 26.5779V48.3557H53.6004V26.5779C53.5996 25.918 53.3127 25.2854 52.8028 24.8188C52.2929 24.3522 51.6015 24.0897 50.8804 24.089H50.2004C50.2004 23.4289 49.9138 22.7958 49.4037 22.3291C48.8936 21.8623 48.2018 21.6001 47.4804 21.6001C46.759 21.6001 46.0672 21.8623 45.5571 22.3291C45.047 22.7958 44.7604 23.4289 44.7604 24.089H42.7204C42.7204 23.4289 42.4338 22.7958 41.9237 22.3291C41.4136 21.8623 40.7218 21.6001 40.0004 21.6001C39.279 21.6001 38.5872 21.8623 38.0771 22.3291C37.567 22.7958 37.2804 23.4289 37.2804 24.089H35.2404C35.2404 23.4289 34.9538 22.7958 34.4437 22.3291C33.9336 21.8623 33.2418 21.6001 32.5204 21.6001C31.799 21.6001 31.1072 21.8623 30.5971 22.3291C30.087 22.7958 29.8004 23.4289 29.8004 24.089H29.1204Z" fill="#010101"/>
<path d="M52.2404 56.1144C52.24 56.4174 52.0965 56.7079 51.8416 56.9222C51.5866 57.1364 51.241 57.2569 50.8804 57.2573H29.1204C28.7598 57.2569 28.4142 57.1364 28.1592 56.9222C27.9042 56.7079 27.7608 56.4174 27.7604 56.1144H26.4004C26.4012 56.7204 26.688 57.3014 27.198 57.7299C27.7079 58.1584 28.3993 58.3995 29.1204 58.4001H50.8804C51.6015 58.3995 52.2929 58.1584 52.8028 57.7299C53.3127 57.3014 53.5996 56.7204 53.6004 56.1144V54.4001H52.2404V56.1144Z" fill="#010101"/>
<path d="M57.3695 49.5654C57.3579 49.4001 57.2811 49.2461 57.156 49.1374C57.0309 49.0287 56.8677 48.9741 56.7024 48.9857L24.2819 51.258C24.2 51.2637 24.1201 51.2855 24.0466 51.3222C23.9732 51.3588 23.9076 51.4096 23.8538 51.4715L22.6943 52.8057C22.5855 52.9309 22.531 53.094 22.5425 53.2594C22.5541 53.4248 22.6309 53.5787 22.7561 53.6875L24.0904 54.8469C24.2041 54.9457 24.3496 55.0002 24.5003 55.0002C24.5148 55.0002 24.5294 54.9997 24.544 54.9986L56.9645 52.7268C57.0464 52.721 57.1263 52.6992 57.1998 52.6626C57.2732 52.6259 57.3387 52.5752 57.3926 52.5132C57.4464 52.4513 57.4875 52.3793 57.5135 52.3015C57.5396 52.2237 57.55 52.1414 57.5443 52.0596L57.3695 49.5654ZM53.0492 50.4951L53.1365 51.7421L51.8896 51.8294L51.8022 50.5825L53.0492 50.4951ZM24.0477 53.1539L24.6275 52.4867L50.555 50.6696L50.6424 51.9165L24.7149 53.7336L24.0477 53.1539ZM54.3832 51.6543L54.2958 50.4074L56.1663 50.2763L56.2536 51.5236L54.3832 51.6543Z" fill="#010101"/>
<path d="M31.875 32.7251C31.875 32.3799 32.1548 32.1001 32.5 32.1001V32.1001C32.8452 32.1001 33.125 32.3799 33.125 32.7251V32.7251C33.125 33.0703 32.8452 33.3501 32.5 33.3501V33.3501C32.1548 33.3501 31.875 33.0703 31.875 32.7251V32.7251Z" fill="#010101"/>
<path d="M34.375 32.7251C34.375 32.3799 34.6548 32.1001 35 32.1001H48.75C49.0952 32.1001 49.375 32.3799 49.375 32.7251V32.7251C49.375 33.0703 49.0952 33.3501 48.75 33.3501H35C34.6548 33.3501 34.375 33.0703 34.375 32.7251V32.7251Z" fill="#010101"/>
<path d="M30.625 35.2251C30.625 34.8799 30.9048 34.6001 31.25 34.6001H48.75C49.0952 34.6001 49.375 34.8799 49.375 35.2251V35.2251C49.375 35.5703 49.0952 35.8501 48.75 35.8501H31.25C30.9048 35.8501 30.625 35.5703 30.625 35.2251V35.2251Z" fill="#010101"/>
<path d="M30.625 37.7251C30.625 37.3799 30.9048 37.1001 31.25 37.1001H36.875C37.2202 37.1001 37.5 37.3799 37.5 37.7251V37.7251C37.5 38.0703 37.2202 38.3501 36.875 38.3501H31.25C30.9048 38.3501 30.625 38.0703 30.625 37.7251V37.7251Z" fill="#010101"/>
</svg>
