<svg width="80" height="80" viewBox="0 0 80 80" fill="none" xmlns="http://www.w3.org/2000/svg">
<circle cx="40" cy="40" r="40" fill="#F6DF39"/>
<path d="M39.4142 53.7768V54.6386L38.6678 54.2077C38.387 54.0455 38.028 54.1418 37.8659 54.4226C37.7037 54.7034 37.7999 55.0624 38.0807 55.2245L38.8271 55.6555L38.0807 56.0864C37.7999 56.2485 37.7037 56.6075 37.8659 56.8883C37.9746 57.0767 38.1719 57.182 38.3748 57.182C38.4744 57.182 38.5754 57.1566 38.6678 57.1032L39.4142 56.6723V57.5341C39.4142 57.8584 39.6771 58.1212 40.0013 58.1212C40.3255 58.1212 40.5884 57.8584 40.5884 57.5341V56.6723L41.3347 57.1032C41.4272 57.1566 41.5282 57.182 41.6277 57.182C41.8306 57.182 42.028 57.0766 42.1367 56.8883C42.2988 56.6075 42.2026 56.2485 41.9218 56.0864L41.1754 55.6555L41.9218 55.2245C42.2026 55.0624 42.2988 54.7034 42.1367 54.4226C41.9746 54.1418 41.6155 54.0456 41.3347 54.2077L40.5884 54.6386V53.7768C40.5884 53.4526 40.3255 53.1897 40.0013 53.1897C39.6771 53.1897 39.4142 53.4526 39.4142 53.7768Z" fill="#010101"/>
<path d="M51.589 47.8481C51.7606 47.5685 51.8598 47.2398 51.8598 46.8885C51.8598 46.0794 51.3346 45.3912 50.6074 45.1455V43.2565C52.7518 40.789 54.0516 37.5689 54.0516 34.0509C54.0516 26.3032 47.7484 20 40.0007 20C32.253 20 25.9498 26.3032 25.9498 34.0509C25.9498 37.5689 27.2496 40.789 29.3941 43.2565V45.1455C28.6669 45.3912 28.1416 46.0794 28.1416 46.8885C28.1416 47.2398 28.2408 47.5685 28.4125 47.8481C26.7901 48.4786 25.6367 50.0557 25.6367 51.8982C25.6367 54.2938 27.5856 56.2427 29.9811 56.2427C32.3767 56.2427 34.3256 54.2938 34.3256 51.8982C34.3256 50.0557 33.1721 48.4786 31.5498 47.8481C31.7215 47.5685 31.8207 47.2398 31.8207 46.8885C31.8207 46.0794 31.2954 45.3912 30.5682 45.1455V44.4562C32.9282 46.5975 36.0174 47.9483 39.4136 48.0886V48.9029C38.6864 49.1486 38.1612 49.8368 38.1612 50.6459C38.1612 50.9973 38.2604 51.3259 38.432 51.6055C36.8097 52.2359 35.6563 53.8131 35.6563 55.6556C35.6563 58.0511 37.6052 60 40.0007 60C42.3962 60 44.3451 58.0511 44.3451 55.6556C44.3451 53.8131 43.1917 52.2359 41.5694 51.6054C41.7411 51.3258 41.8402 50.9972 41.8402 50.6458C41.8402 49.8367 41.315 49.1485 40.5878 48.9029V48.0885C43.984 47.9482 47.0732 46.5975 49.4332 44.4561V45.1454C48.706 45.3911 48.1807 46.0793 48.1807 46.8884C48.1807 47.2398 48.2799 47.5685 48.4516 47.848C46.8293 48.4786 45.6759 50.0557 45.6759 51.8982C45.6759 54.2938 47.6247 56.2427 50.0203 56.2427C52.4158 56.2427 54.3647 54.2938 54.3647 51.8982C54.3647 50.0557 53.2113 48.4786 51.589 47.8481ZM33.1514 51.8982C33.1514 53.6463 31.7292 55.0685 29.9811 55.0685C28.233 55.0685 26.8109 53.6463 26.8109 51.8982C26.8109 50.1501 28.233 48.728 29.9811 48.728C31.7292 48.728 33.1514 50.1501 33.1514 51.8982ZM29.9811 47.5538C29.6143 47.5538 29.3158 47.2553 29.3158 46.8885C29.3158 46.5216 29.6143 46.2231 29.9811 46.2231C30.348 46.2231 30.6465 46.5216 30.6465 46.8885C30.6465 47.2553 30.348 47.5538 29.9811 47.5538ZM43.171 55.6556C43.171 57.4037 41.7488 58.8258 40.0007 58.8258C38.2526 58.8258 36.8305 57.4037 36.8305 55.6556C36.8305 53.9075 38.2526 52.4853 40.0007 52.4853C41.7488 52.4853 43.171 53.9075 43.171 55.6556ZM40.0007 51.3112C39.6338 51.3112 39.3353 51.0127 39.3353 50.6458C39.3353 50.2789 39.6338 49.9804 40.0007 49.9804C40.3676 49.9804 40.6661 50.2789 40.6661 50.6458C40.6661 51.0127 40.3676 51.3112 40.0007 51.3112ZM40.0007 46.9276C32.9004 46.9276 27.124 41.1512 27.124 34.0509C27.124 26.9506 32.9004 21.1742 40.0007 21.1742C47.101 21.1742 52.8774 26.9506 52.8774 34.0509C52.8774 41.1512 47.101 46.9276 40.0007 46.9276ZM49.3549 46.8885C49.3549 46.5216 49.6534 46.2231 50.0203 46.2231C50.3872 46.2231 50.6856 46.5216 50.6856 46.8885C50.6856 47.2553 50.3872 47.5538 50.0203 47.5538C49.6534 47.5538 49.3549 47.2553 49.3549 46.8885ZM50.0203 55.0685C48.2722 55.0685 46.85 53.6463 46.85 51.8982C46.85 50.1501 48.2722 48.728 50.0203 48.728C51.7684 48.728 53.1905 50.1501 53.1905 51.8982C53.1905 53.6463 51.7684 55.0685 50.0203 55.0685Z" fill="#010101"/>
<path d="M52.1562 50.6652C51.9941 50.3845 51.6351 50.2882 51.3543 50.4504L50.6079 50.8813V50.0195C50.6079 49.6952 50.345 49.4324 50.0208 49.4324C49.6966 49.4324 49.4337 49.6952 49.4337 50.0195V50.8813L48.6873 50.4504C48.4065 50.2882 48.0474 50.3845 47.8854 50.6652C47.7233 50.946 47.8195 51.3051 48.1003 51.4672L48.8466 51.8981L48.1003 52.329C47.8195 52.4912 47.7233 52.8502 47.8854 53.131C47.9941 53.3193 48.1915 53.4246 48.3944 53.4246C48.4939 53.4246 48.5949 53.3993 48.6873 53.3459L49.4337 52.915V53.7768C49.4337 54.101 49.6966 54.3639 50.0208 54.3639C50.345 54.3639 50.6079 54.101 50.6079 53.7768V52.915L51.3543 53.3459C51.4467 53.3993 51.5477 53.4246 51.6473 53.4246C51.8502 53.4246 52.0475 53.3193 52.1562 53.131C52.3183 52.8502 52.2221 52.4912 51.9414 52.329L51.195 51.8981L51.9414 51.4672C52.2221 51.3051 52.3183 50.946 52.1562 50.6652Z" fill="#010101"/>
<path d="M29.3947 50.0195V50.8813L28.6483 50.4504C28.3674 50.2882 28.0084 50.3845 27.8463 50.6652C27.6842 50.946 27.7804 51.3051 28.0612 51.4672L28.8076 51.8981L28.0612 52.329C27.7804 52.4912 27.6842 52.8502 27.8463 53.131C27.9551 53.3193 28.1524 53.4246 28.3553 53.4246C28.4549 53.4246 28.5558 53.3993 28.6483 53.3459L29.3947 52.915V53.7768C29.3947 54.101 29.6575 54.3639 29.9818 54.3639C30.306 54.3639 30.5688 54.101 30.5688 53.7768V52.915L31.3152 53.3459C31.4077 53.3993 31.5086 53.4246 31.6082 53.4246C31.8111 53.4246 32.0084 53.3193 32.1172 53.131C32.2793 52.8502 32.1831 52.4912 31.9023 52.329L31.1559 51.8981L31.9023 51.4672C32.1831 51.3051 32.2793 50.946 32.1172 50.6652C31.9551 50.3845 31.5959 50.2882 31.3152 50.4504L30.5688 50.8813V50.0195C30.5688 49.6952 30.306 49.4324 29.9818 49.4324C29.6575 49.4324 29.3947 49.6952 29.3947 50.0195Z" fill="#010101"/>
</svg>
