<svg width="80" height="80" viewBox="0 0 80 80" fill="none" xmlns="http://www.w3.org/2000/svg">
<circle cx="40" cy="40" r="40" fill="#F6DF39"/>
<g clip-path="url(#clip0)">
<path d="M59.9754 42.0308C59.8756 41.5096 59.4571 41.1084 58.932 41.0308L54.688 40.3975L53.9814 35.7488C53.906 35.199 53.4769 34.7649 52.928 34.6829C52.3791 34.601 51.842 34.891 51.6094 35.3948L49.576 39.6355L45.3347 39.0002C44.8094 38.9209 44.2916 39.1835 44.0454 39.6542C43.7797 40.1334 43.8469 40.7283 44.2127 41.1362L45.6987 42.7895C44.31 44.5268 40.588 49.9402 40.0627 58.5402C40.0171 59.1275 40.3557 59.6772 40.9007 59.9008C41.4183 60.1163 42.0159 59.9739 42.3807 59.5481C44.406 57.2568 49.0694 51.9875 53.1874 50.8568L53.9127 51.6135C54.1433 51.8589 54.4646 51.9987 54.8014 52.0002C54.9884 51.9996 55.1728 51.9572 55.3414 51.8762C55.8437 51.6334 56.1339 51.096 56.0614 50.5428L55.4367 45.8002L59.382 43.4002C59.8513 43.1168 60.0895 42.5671 59.9754 42.0308V42.0308ZM41.3934 58.6208C41.6497 53.279 43.4597 48.1281 46.6014 43.8002L47.268 44.5455L45.3014 48.9335C45.0698 49.4418 45.1908 50.0414 45.6014 50.4202C45.9939 50.7856 46.5787 50.8529 47.044 50.5862L50.8747 48.4422L52.1587 49.7822C47.8487 51.3522 43.3807 56.4002 41.3934 58.6208ZM54.7434 44.6595C54.3072 44.9271 54.0688 45.426 54.1347 45.9335L54.7554 50.5688L51.788 47.4708C51.3968 47.0629 50.7793 46.9708 50.286 47.2468L46.594 49.3135L48.4887 45.0902C48.6992 44.6244 48.6167 44.0783 48.278 43.6955L47.0174 42.2955C47.0127 42.2908 47.0107 42.2848 47.006 42.2802H47.002L45.2594 40.3422L49.4407 40.9662C49.9892 41.046 50.5252 40.7566 50.7594 40.2542L52.7014 36.2002L53.3767 40.6422C53.4539 41.1915 53.8824 41.625 54.4307 41.7088L58.5834 42.3282L54.7434 44.6595Z" fill="#010101"/>
<path d="M21.1937 41.4767L21.9937 41.5054C22.0484 44.5507 23.4017 53.5654 30.1204 59.6587C30.5289 60.0367 31.1344 60.1083 31.6197 59.8361C32.1358 59.5481 32.4123 58.9645 32.3084 58.3827C31.7864 55.3827 30.3084 45.4814 32.7151 41.7014H33.3817C33.3544 42.29 33.3357 42.89 33.3357 43.5067C33.2808 48.7047 33.8543 53.8903 35.0437 58.9507C35.1868 59.565 35.7343 59.9998 36.3651 60C36.4031 60 36.4404 60 36.4791 59.9954C37.1507 59.9471 37.6851 59.413 37.7337 58.7414C38.2091 53.608 39.8557 41.43 44.9797 36.208L45.3597 36.8314C45.5799 37.2005 45.9779 37.4266 46.4077 37.4267C46.5058 37.4264 46.6035 37.4152 46.6991 37.3934C47.2423 37.2642 47.6415 36.8011 47.6891 36.2447L48.0964 31.478L52.4637 29.9807C52.9809 29.8041 53.3299 29.3199 53.3337 28.7734C53.3486 28.2442 53.0279 27.7632 52.5337 27.5734L48.5204 26.0414L48.8271 21.3487C48.8709 20.7957 48.5449 20.2801 48.0266 20.0825C47.5082 19.8849 46.9217 20.0528 46.5864 20.4947L43.6911 24.2L39.6811 22.6714C39.1847 22.4813 38.6224 22.6272 38.2811 23.0347C37.9188 23.4457 37.8567 24.0411 38.1264 24.518L38.6531 25.4454C37.4111 27.008 34.5864 31.278 33.6464 38.6027L31.3951 36.9334L32.2891 32.8974C32.4039 32.3863 32.182 31.8587 31.7364 31.5834C31.3104 31.3055 30.7552 31.328 30.3531 31.6394L27.3024 34L23.8431 31.5614C23.4123 31.2548 22.8316 31.2662 22.4133 31.5895C21.995 31.9129 21.8376 32.4719 22.0257 32.966L23.5144 36.9274L20.4624 39.2874C20.0609 39.5989 19.9004 40.1304 20.0624 40.612C20.2167 41.1119 20.6709 41.4591 21.1937 41.4767V41.4767ZM31.0137 58.6707C24.6771 52.9247 23.4097 44.2667 23.3284 41.554L25.3284 41.626L26.9504 45.6314C27.1374 46.1001 27.5905 46.408 28.0951 46.4094H28.1757C28.6889 46.3812 29.1234 46.0211 29.2464 45.522L30.2384 41.7047H31.2071C29.2197 45.8954 30.1804 53.9387 31.0137 58.6707ZM43.2744 25.4667C43.7928 25.6627 44.3784 25.4949 44.7144 25.054L47.4804 21.5167L47.1871 26C47.1449 26.5526 47.4701 27.0673 47.9871 27.2667L51.9111 28.7627L47.6604 30.2194C47.1774 30.3878 46.8382 30.8238 46.7937 31.3334L46.4051 35.9927L44.1697 32.3334C43.9441 31.9645 43.5428 31.7395 43.1104 31.7394C42.9886 31.7393 42.8675 31.7575 42.7511 31.7934L38.7017 33.0187L41.4584 29.3C41.7641 28.8904 41.8009 28.3394 41.5524 27.8927L40.0611 25.262C40.0461 25.2295 40.0285 25.1983 40.0084 25.1687L39.3231 23.962L43.2744 25.4667ZM40.3871 28.5027L37.5204 32.3694C37.1854 32.8165 37.1755 33.4282 37.4957 33.886C37.801 34.3269 38.3575 34.5178 38.8691 34.3574L43.0691 33.0847L44.2624 35.0394C38.8564 40.2474 37.0177 51.98 36.3957 58.6587L36.3364 58.6247C35.1735 53.6709 34.613 48.5949 34.6671 43.5067C34.6671 42.84 34.6884 42.1901 34.7224 41.5581C34.999 41.4213 35.2096 41.1799 35.3077 40.8874C35.47 40.3879 35.2986 39.8404 34.8804 39.5227C35.6137 32.656 38.1257 28.4267 39.3704 26.7107L40.3871 28.5027ZM24.4091 37.92C24.8283 37.5948 24.9842 37.0328 24.7924 36.538L23.4251 32.8974L26.6004 35.1334C27.0311 35.4444 27.615 35.4352 28.0357 35.1107L30.9231 32.8767L30.0757 36.7027C29.9721 37.1804 30.1584 37.6745 30.5517 37.9647L33.7844 40.3647H30.1177C29.5761 40.3648 29.1029 40.7306 28.9664 41.2547L28.0451 44.8014L26.5344 41.068C26.3517 40.6146 25.9202 40.3104 25.4317 40.2907L21.5151 40.1494L24.4091 37.92Z" fill="#010101"/>
</g>
<defs>
<clipPath id="clip0">
<rect width="40" height="40" fill="white" transform="translate(20 20)"/>
</clipPath>
</defs>
</svg>
