<svg width="16" height="16" viewBox="0 0 16 16" fill="none" xmlns="http://www.w3.org/2000/svg">
<g clip-path="url(#clip0)">
<path d="M15.3023 1.04136C14.5803 0.652594 13.775 1.40236 13.3029 1.84667C12.2199 2.90191 11.3035 4.12375 10.276 5.23452C9.13749 6.45637 8.08226 7.67822 6.91595 8.87234C6.24949 9.53881 5.52749 10.2608 5.08318 11.0939C4.08349 10.1219 3.22264 9.06668 2.11187 8.20588C1.30656 7.59496 -0.0263656 7.15065 0.00140363 8.62242C0.0569422 10.5385 1.75087 12.5935 3.00048 13.8986C3.5281 14.454 4.22233 15.0371 5.02764 15.0649C5.99957 15.1204 6.99926 13.9541 7.58241 13.3154C8.60992 12.2047 9.443 10.955 10.3871 9.8165C11.609 8.31696 12.8586 6.84514 14.0527 5.31783C14.8024 4.37368 17.1628 2.04101 15.3023 1.04136ZM1.22321 8.51134C1.19544 8.51134 1.16767 8.51134 1.11213 8.53907C1.00105 8.51134 0.917744 8.48353 0.806667 8.42799C0.889975 8.37245 1.02882 8.40022 1.22321 8.51134Z" fill="#010101"/>
</g>
<defs>
<clipPath id="clip0">
<rect width="16" height="16" fill="white"/>
</clipPath>
</defs>
</svg>
