<svg width="118" height="69" viewBox="0 0 118 69" fill="none" xmlns="http://www.w3.org/2000/svg">
<g clip-path="url(#clip0)">
<path d="M15.252 21.6666L16.5688 18.5582L20.6212 14.706L32.9754 14.348V45.1508H22.9199L19.435 46.5506L15.252 51.9775V21.6666Z" fill="white"/>
<path d="M33.8556 15.2295L22.4434 26.8707H18.9492L32.0896 13.4668L33.8556 15.2295Z" fill="#B01A25"/>
<path d="M33.6394 44.0757L31.8984 45.8508L18.8008 32.7846L18.8131 32.7722H22.3136L33.6394 44.0757Z" fill="#B01A25"/>
<path d="M16.2117 35.0317L14.6133 33.5734L14.7897 33.2536C14.7897 31.8598 14.2875 31.3387 14.9916 30.5612C16.2505 29.1719 18.2313 28.6528 19.4917 28.5908L34.1843 28.5898V31.0903H19.5885C19.1393 31.12 16.2112 31.4051 16.2112 33.7807V35.0317H16.2117Z" fill="#B01A25"/>
<path d="M24.2696 46.4003H34.2151V13.095H24.2696C21.3165 13.095 18.4911 14.3693 16.5256 16.5807C15.4593 17.7708 14.6829 19.1541 14.2358 20.6416L10.8403 17.2154V17.2105L15.0465 6.68882L17.9456 13.9677C18.6483 13.5413 19.3706 13.1049 20.1765 12.8669L15.0465 0L1.09145 34.8969C-0.775783 39.5875 -0.225441 44.883 2.5754 49.0729C5.37624 53.2577 10.0394 55.7617 15.0465 55.7617C20.0536 55.7617 24.7168 53.2577 27.5176 49.0729C27.8321 48.5969 28.122 48.106 28.3825 47.6101H25.503C25.4932 47.6349 25.4735 47.6498 25.4588 47.6746C23.3459 50.843 20.1028 52.7966 16.4125 53.1833C16.6484 51.6314 17.3363 50.1885 18.4075 49.0134C19.9062 47.3523 22.0388 46.4003 24.2696 46.4003ZM9.82811 19.7293L13.8083 23.7456V39.4636L5.35659 30.9352L9.82811 19.7293ZM4.62935 47.6746C2.25109 44.1244 1.79903 39.8057 3.39109 35.834L4.34435 33.454L13.8083 42.9989V53.1982C10.064 52.8412 6.76684 50.8777 4.62935 47.6746ZM18.0636 45.9739C17.528 46.3706 17.0317 46.8218 16.5801 47.3226C16.4769 47.4316 16.3786 47.5457 16.2853 47.6597V23.2844C16.3639 21.5887 16.9879 19.9475 18.0739 18.5938V25.2727L27.6606 15.599H31.7341V19.8086L24.7315 26.8743H31.7337V32.7797H24.9969L31.7337 39.5776V43.9013H27.2425L18.0636 34.644V45.9739Z" fill="#2E336A"/>
<path d="M16.3159 56.8242H13.8379V68.8775H16.3159V56.8242Z" fill="#2E336A"/>
<path d="M22.4101 68.8801H17.7617V56.8283H22.4067C24.3953 56.8283 26.0139 58.4616 26.0139 60.4682C26.0139 62.4759 24.3953 64.1087 22.4067 64.1087H21.9109V61.6082H22.4062C23.0288 61.6082 23.5354 61.0965 23.5354 60.4682C23.5354 59.84 23.0288 59.3288 22.4062 59.3288H20.2397V66.3791H22.4101C23.0307 66.3791 23.5354 65.8699 23.5354 65.2436H26.0134C26.0134 67.2488 24.3968 68.8801 22.4101 68.8801Z" fill="#2E336A"/>
<path d="M30.6042 68.8844H27.7002V66.3834H30.6042C31.2268 66.3834 31.7339 65.8717 31.7339 65.2435C31.7339 64.6153 31.2268 64.1041 30.6042 64.1041H30.0681C28.0795 64.1041 26.4609 62.4708 26.4609 60.4642C26.4609 58.4565 28.0795 56.8237 30.0681 56.8237H32.9731V59.3242H30.0681C29.4456 59.3242 28.9389 59.8359 28.9389 60.4642C28.9389 61.0924 29.4456 61.6036 30.0681 61.6036H30.6042C32.5938 61.6036 34.2119 63.2369 34.2119 65.2435C34.2124 67.2512 32.5938 68.8844 30.6042 68.8844Z" fill="#2E336A"/>
<path d="M13.8087 23.7455V24.876H13.7988V23.7356L13.8087 23.7455Z" fill="#2E336A"/>
<path d="M45.8994 20.449L46.5903 11.9999H48.8152L50.0334 15.5685L50.4545 16.9633H50.4781C50.6338 16.3955 50.7748 15.9314 50.8992 15.5685L52.1173 11.9999H54.3422L55.0218 20.449H52.9723L52.7148 16.6439C52.6991 16.4545 52.6912 16.2418 52.6912 16.0058C52.6912 15.7698 52.6951 15.5809 52.703 15.4386L52.7143 15.2254H52.6907C52.5035 15.8164 52.3472 16.2894 52.2224 16.6434L51.3443 19.0899H49.5877L48.7101 16.6439L48.2418 15.2258H48.2182C48.2492 15.746 48.2492 16.2185 48.2182 16.6439L47.9607 20.449H45.8994Z" fill="#2D3265"/>
<path d="M56.2041 20.449V14.3636H58.23V20.449H56.2041ZM56.2277 13.5955V11.9999H58.2069V13.5955H56.2277Z" fill="#2D3265"/>
<path d="M58.9922 20.4489L60.6899 17.3058V17.282L59.1209 14.363H61.2053L62.3183 16.5254H62.8569V14.3635H64.7423V16.5259H65.2926L66.4056 14.3635H68.4895L66.9205 17.2825V17.3063L68.6187 20.4494H66.4287L65.3516 18.2395H64.7428V20.4494H62.8573V18.2395H62.2603L61.1827 20.4494H58.9922V20.4489Z" fill="#2D3265"/>
<path d="M69.3789 20.4489V14.3635H71.4048V16.514H73.2672V14.3635H75.2926V20.4489H73.2672V18.2276H71.4048V20.4489H69.3789Z" fill="#2D3265"/>
<path d="M76.2178 18.7354C76.2178 18.3496 76.3234 18.0149 76.5342 17.7313C76.7455 17.4477 77.0241 17.231 77.3715 17.0813C77.7189 16.9315 78.0801 16.823 78.455 16.7565C78.8299 16.6901 79.2201 16.6559 79.626 16.6559H79.8014V16.5498C79.8014 16.1005 79.5164 15.8764 78.9469 15.8764C78.4157 15.8764 77.8614 16.0698 77.2836 16.455L76.5809 15.0137C76.8541 14.8009 77.2305 14.616 77.7111 14.4583C78.1916 14.3011 78.6653 14.2218 79.1341 14.2218C79.9694 14.2218 80.6274 14.4424 81.1075 14.8837C81.588 15.325 81.8278 15.9314 81.8278 16.7035V20.4495H79.9773V20.0831L80.0009 19.7052H79.9773C79.7822 19.9809 79.5223 20.1976 79.1985 20.3553C78.8746 20.513 78.5366 20.5918 78.1853 20.5918C77.6074 20.5918 77.1352 20.4148 76.7681 20.0603C76.4016 19.7048 76.2178 19.2635 76.2178 18.7354ZM78.2206 18.5465C78.2206 18.6962 78.2712 18.8202 78.373 18.9189C78.4742 19.017 78.6147 19.0666 78.7941 19.0666C79.0751 19.0666 79.3169 18.9526 79.5203 18.724C79.7237 18.4954 79.825 18.2515 79.825 17.9911V17.8255H79.6373C79.2628 17.8255 78.9326 17.8831 78.6476 17.9971C78.3626 18.1111 78.2206 18.2941 78.2206 18.5465Z" fill="#2D3265"/>
<path d="M83.1143 22.8127V14.3636H84.9412V14.6705L84.9181 15.0608H84.9412C85.3554 14.5015 85.9642 14.2218 86.7681 14.2218C87.5882 14.2218 88.2457 14.5153 88.742 15.1019C89.2373 15.689 89.4854 16.459 89.4854 17.412C89.4854 18.3655 89.2201 19.1335 88.6894 19.7162C88.1582 20.2993 87.487 20.5908 86.6748 20.5908C86.0969 20.5908 85.5859 20.3974 85.1407 20.0117H85.1176C85.1328 20.1535 85.1407 20.327 85.1407 20.5318V22.8127H83.1143ZM85.0817 17.4472C85.0817 17.8414 85.1854 18.182 85.3923 18.4696C85.5991 18.7572 85.89 18.901 86.2645 18.901C86.6001 18.901 86.8811 18.7711 87.1077 18.5113C87.3342 18.2515 87.4472 17.8969 87.4472 17.4472C87.4472 16.9985 87.3376 16.636 87.1195 16.3603C86.9008 16.0847 86.6158 15.9468 86.2645 15.9468C85.9284 15.9468 85.6478 16.0733 85.4213 16.3251C85.1947 16.5775 85.0817 16.9509 85.0817 17.4472Z" fill="#2D3265"/>
<path d="M91.1722 19.7107C90.5162 19.1236 90.1885 18.3615 90.1885 17.4244C90.1885 16.4873 90.5162 15.7187 91.1722 15.1203C91.8277 14.5218 92.636 14.2218 93.5962 14.2218C94.5642 14.2218 95.3779 14.5193 96.0378 15.1143C96.6977 15.7088 97.0279 16.4788 97.0279 17.4244C97.0279 18.362 96.6997 19.1241 96.0442 19.7107C95.3882 20.2978 94.5765 20.5908 93.6084 20.5908C92.6395 20.5908 91.8277 20.2973 91.1722 19.7107ZM92.2375 17.4244C92.2375 17.8657 92.3707 18.2197 92.636 18.488C92.9014 18.7562 93.2252 18.8901 93.6084 18.8901C93.9907 18.8901 94.315 18.7557 94.5804 18.488C94.8457 18.2202 94.9789 17.8657 94.9789 17.4244C94.9789 16.9752 94.8457 16.6127 94.5804 16.337C94.315 16.0614 93.9912 15.9235 93.6084 15.9235C93.2257 15.9235 92.9018 16.0614 92.636 16.337C92.3707 16.6127 92.2375 16.9747 92.2375 17.4244Z" fill="#2D3265"/>
<path d="M97.4131 18.83H98.1624C98.5762 18.1205 98.783 17.1204 98.783 15.8282V14.3635H103.76V18.8305H104.626V21.867H102.823V20.4494H99.2867V21.867H97.4131V18.83ZM100.153 18.83H101.734V15.9819H100.692V16.2065C100.692 17.2622 100.512 18.1368 100.153 18.83Z" fill="#2D3265"/>
<path d="M105.552 20.4489V14.3635H107.578V16.514H109.44V14.3635H111.465V20.4489H109.44V18.2276H107.578V20.4489H105.552Z" fill="#2D3265"/>
<path d="M112.391 18.7354C112.391 18.3496 112.496 18.0149 112.707 17.7313C112.918 17.4477 113.197 17.231 113.544 17.0813C113.892 16.9315 114.253 16.823 114.628 16.7565C115.003 16.6901 115.393 16.6559 115.799 16.6559H115.974V16.5498C115.974 16.1005 115.689 15.8764 115.12 15.8764C114.589 15.8764 114.034 16.0698 113.456 16.455L112.754 15.0137C113.027 14.8009 113.403 14.616 113.884 14.4583C114.364 14.3011 114.838 14.2218 115.307 14.2218C116.142 14.2218 116.8 14.4424 117.28 14.8837C117.761 15.325 118.001 15.9314 118.001 16.7035V20.4495H116.15V20.0831L116.174 19.7052H116.15C115.955 19.9809 115.695 20.1976 115.371 20.3553C115.048 20.513 114.709 20.5918 114.358 20.5918C113.78 20.5918 113.308 20.4148 112.941 20.0603C112.574 19.7048 112.391 19.2635 112.391 18.7354ZM114.393 18.5465C114.393 18.6962 114.444 18.8202 114.546 18.9189C114.647 19.017 114.788 19.0666 114.967 19.0666C115.248 19.0666 115.49 18.9526 115.693 18.724C115.897 18.4954 115.998 18.2515 115.998 17.9911V17.8255H115.81C115.436 17.8255 115.105 17.8831 114.82 17.9971C114.535 18.1111 114.393 18.2941 114.393 18.5465Z" fill="#2D3265"/>
<path d="M45.7588 28.6263C45.7588 27.3971 46.0222 26.4322 46.5489 25.7311C47.0762 25.03 47.9326 24.4746 49.1193 24.0651L51.075 23.4031L51.6484 25.0458L49.3768 25.7787C49.0569 25.8893 48.797 25.9919 48.598 26.0861C48.399 26.1803 48.2098 26.3281 48.0304 26.5294C47.8506 26.7302 47.7567 26.9687 47.7494 27.2439H47.7729C48.2255 26.8581 48.8151 26.6652 49.5414 26.6652C50.3374 26.6652 50.9698 26.9236 51.4381 27.4392C51.9064 27.9554 52.1408 28.6273 52.1408 29.4538C52.1408 30.3121 51.8558 31.0192 51.2863 31.5745C50.7163 32.1298 49.963 32.408 49.0259 32.408C47.9641 32.408 47.1538 32.0654 46.5961 31.3801C46.0384 30.6939 45.7588 29.7766 45.7588 28.6263ZM47.7734 29.489C47.7734 29.8673 47.886 30.1703 48.1125 30.3989C48.339 30.6275 48.6161 30.7415 48.9439 30.7415C49.2716 30.7415 49.5488 30.6275 49.7753 30.3989C50.0013 30.1703 50.1143 29.8673 50.1143 29.489C50.1143 29.1033 50.0013 28.7919 49.7753 28.5554C49.5488 28.3189 49.2716 28.2008 48.9439 28.2008C48.6161 28.2008 48.339 28.3189 48.1125 28.5554C47.886 28.7919 47.7734 29.1028 47.7734 29.489Z" fill="#2D3265"/>
<path d="M53.8392 31.5274C53.1832 30.9403 52.8555 30.1782 52.8555 29.2411C52.8555 28.304 53.1832 27.5354 53.8392 26.937C54.4947 26.3385 55.303 26.0385 56.2632 26.0385C57.2312 26.0385 58.0449 26.336 58.7048 26.931C59.3647 27.5255 59.6949 28.2956 59.6949 29.2411C59.6949 30.1787 59.3667 30.9408 58.7112 31.5274C58.0552 32.1145 57.2435 32.4075 56.2754 32.4075C55.3065 32.4075 54.4947 32.114 53.8392 31.5274ZM54.9045 29.2411C54.9045 29.6824 55.0377 30.0364 55.303 30.3047C55.5684 30.5729 55.8922 30.7068 56.2754 30.7068C56.6577 30.7068 56.982 30.5724 57.2474 30.3047C57.5127 30.0369 57.6459 29.6824 57.6459 29.2411C57.6459 28.7919 57.5127 28.4294 57.2474 28.1537C56.982 27.8781 56.6582 27.7402 56.2754 27.7402C55.8927 27.7402 55.5688 27.8781 55.303 28.1537C55.0372 28.4294 54.9045 28.7914 54.9045 29.2411Z" fill="#2D3265"/>
<path d="M60.7129 34.6294V26.1803H62.5398V26.4872L62.5167 26.8775H62.5398C62.9541 26.3182 63.5629 26.0385 64.3668 26.0385C65.1869 26.0385 65.8443 26.332 66.3406 26.9186C66.8359 27.5057 67.0841 28.2757 67.0841 29.2287C67.0841 30.1822 66.8187 30.9503 66.288 31.5329C65.7569 32.116 65.0856 32.4075 64.2734 32.4075C63.6955 32.4075 63.1845 32.2141 62.7393 31.8284H62.7162C62.7315 31.9702 62.7393 32.1437 62.7393 32.3485V34.6294H60.7129ZM62.6804 29.2639C62.6804 29.6581 62.784 29.9988 62.9909 30.2863C63.1978 30.5739 63.4887 30.7177 63.8631 30.7177C64.1987 30.7177 64.4798 30.5878 64.7063 30.328C64.9328 30.0682 65.0458 29.7136 65.0458 29.2639C65.0458 28.8152 64.9363 28.4527 64.7181 28.1771C64.4994 27.9014 64.2144 27.7635 63.8631 27.7635C63.527 27.7635 63.2464 27.89 63.0199 28.1418C62.7934 28.3942 62.6804 28.7676 62.6804 29.2639Z" fill="#2D3265"/>
<path d="M67.5059 30.6468H68.2552C68.669 29.9372 68.8758 28.9371 68.8758 27.645V26.1803H73.853V30.6473H74.7193V33.6838H72.9159V32.2662H69.3795V33.6838H67.5059V30.6468ZM70.2458 30.6468H71.827V27.7987H70.7848V28.0233C70.7848 29.079 70.605 29.9536 70.2458 30.6468Z" fill="#2D3265"/>
<path d="M75.6436 32.2657V26.1803H77.5526V28.8628C77.5526 29.0596 77.5447 29.2604 77.529 29.4652H77.5526C77.5997 29.3472 77.7088 29.1459 77.8808 28.8628L79.5549 26.1803H81.5224V32.2657H79.6134V29.607C79.6134 29.3551 79.6212 29.1504 79.637 28.9927H79.6134C79.5903 29.0561 79.4807 29.2565 79.2856 29.5956L77.611 32.2662H75.6436V32.2657Z" fill="#2D3265"/>
<path d="M82.8809 32.2657V26.1803H84.9068V28.3307H86.7691V26.1803H88.7946V32.2657H86.7691V30.0443H84.9068V32.2657H82.8809Z" fill="#2D3265"/>
<path d="M90.1523 32.2657V26.1803H94.4032V27.8939H92.1783V32.2657H90.1523Z" fill="#2D3265"/>
<path d="M95.8216 31.5274C95.1656 30.9403 94.8379 30.1782 94.8379 29.2411C94.8379 28.304 95.1656 27.5354 95.8216 26.937C96.4771 26.3385 97.2854 26.0385 98.2456 26.0385C99.2136 26.0385 100.027 26.336 100.687 26.931C101.347 27.5255 101.677 28.2956 101.677 29.2411C101.677 30.1787 101.349 30.9408 100.694 31.5274C100.038 32.1145 99.2259 32.4075 98.2579 32.4075C97.2889 32.4075 96.4771 32.114 95.8216 31.5274ZM96.8869 29.2411C96.8869 29.6824 97.0201 30.0364 97.2854 30.3047C97.5508 30.5729 97.8746 30.7068 98.2579 30.7068C98.6402 30.7068 98.9645 30.5724 99.2298 30.3047C99.4952 30.0369 99.6283 29.6824 99.6283 29.2411C99.6283 28.7919 99.4952 28.4294 99.2298 28.1537C98.9645 27.8781 98.6407 27.7402 98.2579 27.7402C97.8751 27.7402 97.5513 27.8781 97.2854 28.1537C97.0201 28.4294 96.8869 28.7914 96.8869 29.2411Z" fill="#2D3265"/>
<path d="M102.694 32.2657V26.1803H105.985C106.61 26.1803 107.107 26.3181 107.478 26.5938C107.849 26.87 108.035 27.2637 108.035 27.7759C108.035 28.0436 107.972 28.2975 107.847 28.538C107.722 28.778 107.55 28.9649 107.331 29.0993V29.1107C107.651 29.2133 107.89 29.3888 108.046 29.6368C108.202 29.8852 108.28 30.1589 108.28 30.4579C108.28 31.0806 108.064 31.5373 107.631 31.8289C107.197 32.1204 106.649 32.2662 105.985 32.2662H102.694V32.2657ZM104.72 28.5792H105.482C105.661 28.5792 105.796 28.5221 105.886 28.4076C105.975 28.2935 106.02 28.1493 106.02 27.9762C106.02 27.819 105.973 27.6911 105.879 27.5924C105.786 27.4943 105.645 27.4447 105.458 27.4447H104.72V28.5792ZM104.72 30.9894H105.611C105.814 30.9894 105.971 30.9304 106.085 30.8124C106.198 30.6944 106.255 30.5526 106.255 30.3875C106.255 30.2139 106.2 30.0681 106.091 29.9501C105.982 29.8321 105.825 29.7731 105.622 29.7731H104.721V30.9894H104.72Z" fill="#2D3265"/>
<path d="M108.89 30.5521C108.89 30.1663 108.995 29.8317 109.206 29.548C109.417 29.2644 109.696 29.0477 110.043 28.898C110.391 28.7483 110.752 28.6397 111.127 28.5732C111.502 28.5068 111.892 28.4726 112.298 28.4726H112.473V28.3665C112.473 27.9172 112.188 27.6931 111.619 27.6931C111.088 27.6931 110.533 27.8865 109.955 28.2718L109.253 26.8304C109.526 26.6176 109.902 26.4327 110.383 26.275C110.864 26.1178 111.337 26.0385 111.806 26.0385C112.641 26.0385 113.299 26.2592 113.779 26.7005C114.26 27.1417 114.5 27.7482 114.5 28.5202V32.2662H112.649V31.8998L112.673 31.522H112.649C112.454 31.7976 112.194 32.0143 111.87 32.172C111.547 32.3297 111.208 32.4085 110.857 32.4085C110.279 32.4085 109.807 32.2315 109.44 31.877C109.073 31.5215 108.89 31.0807 108.89 30.5521ZM110.892 30.3632C110.892 30.5129 110.943 30.6369 111.045 30.7356C111.146 30.8337 111.287 30.8833 111.466 30.8833C111.747 30.8833 111.989 30.7693 112.192 30.5407C112.396 30.3121 112.497 30.0682 112.497 29.8079V29.6422H112.309C111.935 29.6422 111.605 29.6998 111.32 29.8138C111.035 29.9278 110.892 30.1108 110.892 30.3632Z" fill="#2D3265"/>
<path d="M46.0283 44.0824V37.997H47.9373V42.3688H49.296V37.997H51.205V42.3688H52.5636V37.997H54.4726V44.0824H46.0283Z" fill="#2D3265"/>
<path d="M55.8291 44.0824V37.997H57.855V40.1355H58.429L59.6235 37.997H61.8249L60.0564 40.8922V40.916L62.071 44.0829H59.764L58.4874 41.8497H57.855V44.0829H55.8291V44.0824Z" fill="#2D3265"/>
<path d="M63.1488 43.3442C62.4928 42.7571 62.165 41.995 62.165 41.0579C62.165 40.1208 62.4928 39.3522 63.1488 38.7537C63.8043 38.1553 64.6126 37.8553 65.5727 37.8553C66.5407 37.8553 67.3545 38.1528 68.0144 38.7478C68.6743 39.3423 69.0045 40.1123 69.0045 41.0579C69.0045 41.9955 68.6763 42.7576 68.0208 43.3442C67.3648 43.9313 66.553 44.2243 65.585 44.2243C64.616 44.2243 63.8043 43.9313 63.1488 43.3442ZM64.2141 41.0579C64.2141 41.4992 64.3472 41.8532 64.6126 42.1215C64.8779 42.3897 65.2017 42.5236 65.585 42.5236C65.9673 42.5236 66.2916 42.3892 66.557 42.1215C66.8223 41.8537 66.9555 41.4992 66.9555 41.0579C66.9555 40.6087 66.8223 40.2462 66.557 39.9705C66.2916 39.6948 65.9678 39.557 65.585 39.557C65.2022 39.557 64.8784 39.6948 64.6126 39.9705C64.3467 40.2462 64.2141 40.6082 64.2141 41.0579Z" fill="#2D3265"/>
<path d="M69.4014 44.1414V42.3569C69.5262 42.3415 69.6357 42.3157 69.7291 42.28C69.823 42.2448 69.9242 42.1779 70.0338 42.0797C70.1433 41.9811 70.2308 41.8492 70.2971 41.6836C70.3635 41.5179 70.42 41.2874 70.4672 40.9919C70.5138 40.6963 70.5374 40.3478 70.5374 39.9466V37.9965H75.4797V44.0819H73.4537V39.6149H72.4464V39.9576C72.4464 41.2968 72.216 42.3286 71.7555 43.0536C71.2946 43.7795 70.5099 44.1414 69.4014 44.1414Z" fill="#2D3265"/>
<path d="M76.4043 42.3689C76.4043 41.9831 76.5099 41.6484 76.7207 41.3648C76.932 41.0812 77.2106 40.8645 77.5581 40.7148C77.9055 40.565 78.2666 40.4564 78.6415 40.39C79.0165 40.3236 79.4066 40.2893 79.8125 40.2893H79.9879V40.1832C79.9879 39.734 79.7029 39.5099 79.1334 39.5099C78.6022 39.5099 78.048 39.7033 77.4701 40.0885L76.7674 38.6471C77.0406 38.4344 77.417 38.2495 77.8976 38.0918C78.3782 37.9346 78.8518 37.8553 79.3206 37.8553C80.156 37.8553 80.8139 38.0759 81.294 38.5172C81.7745 38.9585 82.0143 39.5649 82.0143 40.3369V44.083H80.1638V43.7166L80.1874 43.3387H80.1638C79.9687 43.6144 79.7088 43.8311 79.385 43.9888C79.0612 44.1465 78.7231 44.2253 78.3718 44.2253C77.7939 44.2253 77.3217 44.0483 76.9546 43.6938C76.5881 43.3382 76.4043 42.8974 76.4043 42.3689ZM78.4076 42.18C78.4076 42.3297 78.4583 42.4537 78.56 42.5523C78.6612 42.6505 78.8017 42.7001 78.9811 42.7001C79.2621 42.7001 79.5039 42.5861 79.7073 42.3575C79.9108 42.1289 80.012 41.8849 80.012 41.6246V41.459H79.8243C79.4499 41.459 79.1196 41.5165 78.8346 41.6306C78.5496 41.7446 78.4076 41.9276 78.4076 42.18Z" fill="#2D3265"/>
<path d="M45.7148 56.3778L45.9188 56.1438C46.2839 56.5122 46.7148 56.6967 47.2116 56.6967C47.5393 56.6967 47.8076 56.6064 48.0164 56.4269C48.2248 56.2474 48.329 56.0109 48.329 55.7179C48.329 55.4625 48.2425 55.2463 48.0695 55.0688C47.8956 54.8918 47.6867 54.7495 47.4406 54.6439C47.1949 54.5373 46.9487 54.4287 46.703 54.3176C46.4568 54.2066 46.247 54.0534 46.074 53.8565C45.9006 53.6607 45.8141 53.4207 45.8141 53.1371C45.8141 52.7548 45.9561 52.4459 46.2391 52.2118C46.5227 51.9778 46.875 51.8613 47.2966 51.8613C47.8071 51.8613 48.2218 52.015 48.5403 52.3219L48.3712 52.5842C48.24 52.4518 48.0749 52.3477 47.8759 52.2723C47.6769 52.1969 47.4789 52.1588 47.2823 52.1588C46.9639 52.1588 46.6922 52.246 46.4671 52.4206C46.2426 52.5961 46.1296 52.8272 46.1296 53.1152C46.1296 53.3562 46.2165 53.561 46.3895 53.7286C46.563 53.8967 46.7723 54.031 47.0185 54.1327C47.2642 54.2343 47.5103 54.3414 47.756 54.455C48.0017 54.5685 48.2115 54.7267 48.385 54.93C48.5584 55.1333 48.6444 55.3837 48.6444 55.6817C48.6444 56.0645 48.5142 56.3788 48.2548 56.6243C47.9948 56.8702 47.6445 56.9932 47.2042 56.9932C46.619 56.9947 46.1227 56.7889 45.7148 56.3778Z" fill="#030406"/>
<path d="M50.9915 56.9094V52.2297H49.1582V51.9461H53.1275V52.2297H51.2942V56.9094H50.9915Z" fill="#030406"/>
<path d="M53.9502 55.2082V51.9466H54.2519V55.1943C54.2519 55.6574 54.39 56.0248 54.6666 56.2966C54.9433 56.5688 55.3152 56.7041 55.7835 56.7041C56.2518 56.7041 56.6257 56.5688 56.9044 56.2966C57.1825 56.0248 57.3225 55.6525 57.3225 55.1799V51.9466H57.6247V55.2082C57.6247 55.7516 57.4547 56.1855 57.1152 56.5093C56.7756 56.8326 56.3339 56.9947 55.7909 56.9947C55.243 56.9947 54.7988 56.8316 54.4593 56.5053C54.1197 56.1795 53.9502 55.7467 53.9502 55.2082Z" fill="#030406"/>
<path d="M59.0723 56.9094V51.9461H60.6181C61.3581 51.9461 61.9522 52.1658 62.3994 52.6056C62.8465 53.0454 63.0701 53.6523 63.0701 54.4278C63.0701 55.2077 62.8475 55.8166 62.4028 56.2539C61.9581 56.6912 61.3631 56.9094 60.6181 56.9094H59.0723ZM59.374 56.6258H60.569C61.2343 56.6258 61.7645 56.4344 62.1601 56.0516C62.5561 55.6693 62.7537 55.1279 62.7537 54.4283C62.7537 53.7336 62.5561 53.1936 62.1601 52.8079C61.764 52.4231 61.2338 52.2302 60.569 52.2302H59.374V56.6258Z" fill="#030406"/>
<path d="M65.0999 56.9094V54.754L63.4277 51.9461H63.7722L64.9387 53.9032L65.2404 54.463H65.2542C65.3574 54.2502 65.4581 54.0638 65.5564 53.9032L66.7229 51.9461H67.0669L65.4016 54.754V56.9094H65.0999Z" fill="#030406"/>
<path d="M67.3135 56.9095V56.4633H67.742V56.9095H67.3135Z" fill="#030406"/>
<path d="M68.9014 55.2082V51.9466H69.2031V55.1943C69.2031 55.6574 69.3411 56.0248 69.6178 56.2966C69.8944 56.5688 70.2664 56.7041 70.7347 56.7041C71.203 56.7041 71.5769 56.5688 71.8555 56.2966C72.1336 56.0248 72.2737 55.6525 72.2737 55.1799V51.9466H72.5759V55.2082C72.5759 55.7516 72.4059 56.1855 72.0663 56.5093C71.7268 56.8326 71.285 56.9947 70.7421 56.9947C70.1942 56.9947 69.75 56.8316 69.4104 56.5053C69.0709 56.1795 68.9014 55.7467 68.9014 55.2082Z" fill="#030406"/>
<path d="M73.377 56.9094L75.2181 51.9461H75.541L77.3817 56.9094H77.0588L76.4191 55.1938H74.3327L73.7003 56.9094H73.377ZM74.4378 54.9102H76.3139L75.569 52.8961L75.3862 52.3006H75.3724C75.3017 52.5565 75.2407 52.7548 75.1896 52.8961L74.4378 54.9102Z" fill="#030406"/>
</g>
<defs>
<clipPath id="clip0">
<rect width="118" height="69" fill="white"/>
</clipPath>
</defs>
</svg>
