<svg width="40" height="40" viewBox="0 0 40 40" fill="none" xmlns="http://www.w3.org/2000/svg">
<circle cx="20" cy="20" r="20" fill="#F7DF39"/>
<path d="M19.9997 20C19.083 20 18.333 19.25 18.333 18.3333C18.333 17.4167 19.083 16.6667 19.9997 16.6667C20.9163 16.6667 21.6663 17.4167 21.6663 18.3333C21.6663 19.25 20.9163 20 19.9997 20ZM24.9997 18.5C24.9997 15.475 22.7913 13.3333 19.9997 13.3333C17.208 13.3333 14.9997 15.475 14.9997 18.5C14.9997 20.45 16.6247 23.0333 19.9997 26.1167C23.3747 23.0333 24.9997 20.45 24.9997 18.5ZM19.9997 11.6667C23.4997 11.6667 26.6663 14.35 26.6663 18.5C26.6663 21.2667 24.4413 24.5417 19.9997 28.3333C15.558 24.5417 13.333 21.2667 13.333 18.5C13.333 14.35 16.4997 11.6667 19.9997 11.6667Z" fill="#010101"/>
</svg>
