<svg width="274" height="365" viewBox="0 0 274 365" fill="none" xmlns="http://www.w3.org/2000/svg">
<path d="M0 0L0 365H274V0L0 0ZM259.212 292.232H14.7881L14.7881 47.517L259.223 47.517V292.232H259.212Z" fill="white"/>
<path d="M57.3049 28.2722H56.3257V22.5453H57.3049V28.2722ZM56.2463 21.0262C56.2463 20.8674 56.2939 20.7333 56.3892 20.6239C56.488 20.5145 56.6327 20.4598 56.8232 20.4598C57.0138 20.4598 57.1585 20.5145 57.2573 20.6239C57.3561 20.7333 57.4055 20.8674 57.4055 21.0262C57.4055 21.185 57.3561 21.3173 57.2573 21.4231C57.1585 21.529 57.0138 21.5819 56.8232 21.5819C56.6327 21.5819 56.488 21.529 56.3892 21.4231C56.2939 21.3173 56.2463 21.185 56.2463 21.0262ZM63.7253 25.4723C63.7253 26.3474 63.5241 27.0513 63.1219 27.5842C62.7196 28.1135 62.1797 28.3781 61.5022 28.3781C60.7789 28.3781 60.2196 28.1223 59.8244 27.6106L59.7767 28.2722H58.8769V20.1422H59.8561V23.1751C60.2513 22.6846 60.7965 22.4394 61.4916 22.4394C62.1868 22.4394 62.732 22.7023 63.1272 23.228C63.5259 23.7538 63.7253 24.4737 63.7253 25.3876V25.4723ZM62.7461 25.3611C62.7461 24.6942 62.6173 24.179 62.3597 23.8156C62.1021 23.4521 61.7316 23.2704 61.2482 23.2704C60.6024 23.2704 60.1384 23.5703 59.8561 24.1702V26.6473C60.156 27.2472 60.6236 27.5471 61.2588 27.5471C61.7281 27.5471 62.0933 27.3654 62.3544 27.0019C62.6155 26.6385 62.7461 26.0915 62.7461 25.3611ZM68.2984 26.7532C68.2984 26.4885 68.1978 26.2839 67.9967 26.1392C67.7991 25.991 67.4515 25.8639 66.954 25.7581C66.46 25.6522 66.0665 25.5252 65.7737 25.377C65.4843 25.2288 65.2691 25.0524 65.1279 24.8477C64.9903 24.643 64.9215 24.3996 64.9215 24.1173C64.9215 23.648 65.1191 23.251 65.5143 22.9263C65.913 22.6017 66.4212 22.4394 67.0387 22.4394C67.6879 22.4394 68.2137 22.607 68.616 22.9422C69.0218 23.2774 69.2247 23.7062 69.2247 24.2284H68.2402C68.2402 23.9602 68.1255 23.7291 67.8961 23.535C67.6703 23.341 67.3845 23.2439 67.0387 23.2439C66.6823 23.2439 66.4035 23.3216 66.2024 23.4768C66.0013 23.6321 65.9007 23.835 65.9007 24.0855C65.9007 24.3219 65.9942 24.5001 66.1812 24.6201C66.3682 24.7401 66.7052 24.8548 67.1922 24.9641C67.6826 25.0735 68.0796 25.2041 68.3831 25.3558C68.6865 25.5076 68.9106 25.691 69.0553 25.9063C69.2035 26.118 69.2776 26.3774 69.2776 26.6844C69.2776 27.196 69.0729 27.6071 68.6636 27.9176C68.2543 28.2246 67.7232 28.3781 67.0704 28.3781C66.6117 28.3781 66.2059 28.2969 65.853 28.1346C65.5002 27.9723 65.2232 27.7465 65.0221 27.4571C64.8244 27.1643 64.7256 26.8484 64.7256 26.5097H65.7048C65.7225 26.8379 65.853 27.099 66.0965 27.293C66.3435 27.4836 66.6682 27.5789 67.0704 27.5789C67.4409 27.5789 67.7373 27.5048 67.9596 27.3566C68.1855 27.2048 68.2984 27.0037 68.2984 26.7532ZM70.5744 27.7588C70.5744 27.5895 70.6238 27.4483 70.7226 27.3354C70.8249 27.2225 70.9766 27.166 71.1778 27.166C71.3789 27.166 71.5306 27.2225 71.633 27.3354C71.7388 27.4483 71.7918 27.5895 71.7918 27.7588C71.7918 27.9211 71.7388 28.057 71.633 28.1664C71.5306 28.2758 71.3789 28.3305 71.1778 28.3305C70.9766 28.3305 70.8249 28.2758 70.7226 28.1664C70.6238 28.057 70.5744 27.9211 70.5744 27.7588ZM76.746 26.7532C76.746 26.4885 76.6454 26.2839 76.4443 26.1392C76.2467 25.991 75.8991 25.8639 75.4016 25.7581C74.9076 25.6522 74.5141 25.5252 74.2212 25.377C73.9319 25.2288 73.7166 25.0524 73.5755 24.8477C73.4379 24.643 73.3691 24.3996 73.3691 24.1173C73.3691 23.648 73.5667 23.251 73.9619 22.9263C74.3606 22.6017 74.8687 22.4394 75.4863 22.4394C76.1355 22.4394 76.6613 22.607 77.0636 22.9422C77.4693 23.2774 77.6722 23.7062 77.6722 24.2284H76.6878C76.6878 23.9602 76.5731 23.7291 76.3437 23.535C76.1179 23.341 75.8321 23.2439 75.4863 23.2439C75.1299 23.2439 74.8511 23.3216 74.65 23.4768C74.4488 23.6321 74.3483 23.835 74.3483 24.0855C74.3483 24.3219 74.4418 24.5001 74.6288 24.6201C74.8158 24.7401 75.1528 24.8548 75.6397 24.9641C76.1302 25.0735 76.5272 25.2041 76.8307 25.3558C77.1341 25.5076 77.3582 25.691 77.5029 25.9063C77.6511 26.118 77.7252 26.3774 77.7252 26.6844C77.7252 27.196 77.5205 27.6071 77.1112 27.9176C76.7019 28.2246 76.1708 28.3781 75.518 28.3781C75.0593 28.3781 74.6535 28.2969 74.3006 28.1346C73.9478 27.9723 73.6708 27.7465 73.4696 27.4571C73.272 27.1643 73.1732 26.8484 73.1732 26.5097H74.1524C74.1701 26.8379 74.3006 27.099 74.5441 27.293C74.7911 27.4836 75.1157 27.5789 75.518 27.5789C75.8885 27.5789 76.1849 27.5048 76.4072 27.3566C76.6331 27.2048 76.746 27.0037 76.746 26.7532ZM80.3293 21.1585V22.5453H81.3985V23.3021H80.3293V26.8537C80.3293 27.0831 80.377 27.256 80.4722 27.3724C80.5675 27.4854 80.7298 27.5418 80.9592 27.5418C81.0721 27.5418 81.2274 27.5206 81.425 27.4783V28.2722C81.1674 28.3428 80.9168 28.3781 80.6734 28.3781C80.2358 28.3781 79.9059 28.2458 79.6836 27.9811C79.4613 27.7165 79.3501 27.3407 79.3501 26.8537V23.3021H78.3074V22.5453H79.3501V21.1585H80.3293ZM86.0828 27.7059C85.7017 28.154 85.1424 28.3781 84.4049 28.3781C83.7944 28.3781 83.3287 28.2017 83.0076 27.8488C82.69 27.4924 82.5294 26.9666 82.5259 26.2715V22.5453H83.5051V26.245C83.5051 27.1131 83.858 27.5471 84.5637 27.5471C85.3118 27.5471 85.8093 27.2683 86.0563 26.7108V22.5453H87.0355V28.2722H86.1039L86.0828 27.7059ZM88.2899 25.3611C88.2899 24.4825 88.4981 23.7768 88.9145 23.2439C89.3309 22.7076 89.8761 22.4394 90.55 22.4394C91.2205 22.4394 91.7515 22.6688 92.1432 23.1275V20.1422H93.1224V28.2722H92.2226L92.175 27.6583C91.7833 28.1382 91.2381 28.3781 90.5395 28.3781C89.8761 28.3781 89.3344 28.1064 88.9145 27.563C88.4981 27.0196 88.2899 26.3103 88.2899 25.4352V25.3611ZM89.2691 25.4723C89.2691 26.1215 89.4032 26.6297 89.6714 26.9966C89.9396 27.3636 90.3101 27.5471 90.7829 27.5471C91.404 27.5471 91.8574 27.2683 92.1432 26.7108V24.0802C91.8503 23.5403 91.4004 23.2704 90.7935 23.2704C90.3136 23.2704 89.9396 23.4556 89.6714 23.8262C89.4032 24.1967 89.2691 24.7454 89.2691 25.4723ZM96.5205 26.8379L97.8543 22.5453H98.9023L96.5999 29.1562C96.2435 30.1089 95.6772 30.5853 94.9009 30.5853L94.7156 30.5694L94.3504 30.5006V29.7066L94.615 29.7278C94.9467 29.7278 95.2043 29.6608 95.3878 29.5267C95.5748 29.3926 95.7283 29.1474 95.8483 28.791L96.0653 28.2087L94.0222 22.5453H95.0914L96.5205 26.8379ZM99.2305 27.7588C99.2305 27.5895 99.2799 27.4483 99.3787 27.3354C99.481 27.2225 99.6328 27.166 99.8339 27.166C100.035 27.166 100.187 27.2225 100.289 27.3354C100.395 27.4483 100.448 27.5895 100.448 27.7588C100.448 27.9211 100.395 28.057 100.289 28.1664C100.187 28.2758 100.035 28.3305 99.8339 28.3305C99.6328 28.3305 99.481 28.2758 99.3787 28.1664C99.2799 28.057 99.2305 27.9211 99.2305 27.7588ZM105.603 27.7059C105.222 28.154 104.663 28.3781 103.925 28.3781C103.315 28.3781 102.849 28.2017 102.528 27.8488C102.21 27.4924 102.05 26.9666 102.046 26.2715V22.5453H103.026V26.245C103.026 27.1131 103.378 27.5471 104.084 27.5471C104.832 27.5471 105.33 27.2683 105.577 26.7108V22.5453H106.556V28.2722H105.624L105.603 27.7059ZM111.584 28.2722C111.528 28.1593 111.482 27.9582 111.447 27.6688C110.991 28.1417 110.448 28.3781 109.816 28.3781C109.252 28.3781 108.788 28.2193 108.424 27.9017C108.064 27.5806 107.885 27.1748 107.885 26.6844C107.885 26.088 108.11 25.6258 108.562 25.2976C109.017 24.9659 109.656 24.8001 110.478 24.8001H111.431V24.3502C111.431 24.0079 111.328 23.7362 111.124 23.535C110.919 23.3304 110.617 23.228 110.219 23.228C109.869 23.228 109.576 23.3163 109.34 23.4927C109.104 23.6691 108.985 23.8826 108.985 24.1331H108.001C108.001 23.8473 108.102 23.5721 108.303 23.3074C108.507 23.0393 108.783 22.8275 109.128 22.6723C109.478 22.517 109.861 22.4394 110.277 22.4394C110.937 22.4394 111.454 22.6052 111.828 22.9369C112.202 23.2651 112.396 23.7185 112.41 24.2972V26.9331C112.41 27.4589 112.477 27.877 112.611 28.1876V28.2722H111.584ZM109.959 27.5259C110.266 27.5259 110.557 27.4465 110.833 27.2878C111.108 27.129 111.307 26.9225 111.431 26.6685V25.4934H110.663C109.464 25.4934 108.864 25.8445 108.864 26.5467C108.864 26.8537 108.966 27.0937 109.171 27.2666C109.375 27.4395 109.638 27.5259 109.959 27.5259Z" fill="#3E3E3D"/>
<path d="M42.7407 340.084H41.9487V334.834L40.3605 335.418V334.702L42.6172 333.855H42.7407V340.084ZM48.1396 333.881V334.549H47.9948C47.3817 334.561 46.8935 334.742 46.5301 335.094C46.1668 335.446 45.9567 335.941 45.9 336.58C46.2264 336.205 46.672 336.018 47.2369 336.018C47.7762 336.018 48.2063 336.208 48.527 336.589C48.8506 336.969 49.0124 337.46 49.0124 338.062C49.0124 338.701 48.8379 339.211 48.4887 339.595C48.1424 339.978 47.6769 340.17 47.0921 340.17C46.4989 340.17 46.0178 339.942 45.6488 339.488C45.2797 339.031 45.0952 338.444 45.0952 337.726V337.423C45.0952 336.282 45.3379 335.411 45.8233 334.809C46.3115 334.204 47.0368 333.895 47.9991 333.881H48.1396ZM47.1049 336.674C46.8353 336.674 46.5869 336.755 46.3598 336.917C46.1327 337.078 45.9752 337.281 45.8872 337.525V337.815C45.8872 338.326 46.0021 338.737 46.2321 339.05C46.462 339.362 46.7487 339.518 47.0921 339.518C47.447 339.518 47.7251 339.387 47.9267 339.126C48.1311 338.865 48.2332 338.523 48.2332 338.1C48.2332 337.674 48.1296 337.331 47.9224 337.07C47.718 336.806 47.4455 336.674 47.1049 336.674ZM51.0902 336.601H51.6821C52.0539 336.596 52.3463 336.498 52.5592 336.308C52.7721 336.117 52.8785 335.861 52.8785 335.537C52.8785 334.81 52.5166 334.447 51.7928 334.447C51.4521 334.447 51.1796 334.545 50.9753 334.741C50.7737 334.934 50.673 335.191 50.673 335.511H49.8853C49.8853 335.02 50.0641 334.613 50.4218 334.289C50.7823 333.963 51.2393 333.8 51.7928 333.8C52.3775 333.8 52.8359 333.955 53.168 334.264C53.5002 334.573 53.6662 335.003 53.6662 335.554C53.6662 335.824 53.5782 336.085 53.4022 336.337C53.2291 336.59 52.9921 336.779 52.6912 336.904C53.0318 337.012 53.2944 337.19 53.4789 337.44C53.6662 337.69 53.7599 337.995 53.7599 338.356C53.7599 338.912 53.5782 339.353 53.2149 339.68C52.8515 340.006 52.3789 340.17 51.797 340.17C51.2151 340.17 50.7411 340.012 50.3749 339.697C50.0116 339.382 49.8299 338.966 49.8299 338.449H50.6219C50.6219 338.776 50.7283 339.037 50.9412 339.233C51.1541 339.429 51.4394 339.527 51.797 339.527C52.1774 339.527 52.4683 339.427 52.6699 339.229C52.8714 339.03 52.9722 338.745 52.9722 338.373C52.9722 338.012 52.8615 337.735 52.6401 337.542C52.4187 337.349 52.0993 337.25 51.6821 337.244H51.0902V336.601ZM58.9033 340.084H54.8414V339.518L56.9873 337.134C57.3052 336.773 57.5238 336.481 57.643 336.257C57.7651 336.029 57.8261 335.795 57.8261 335.554C57.8261 335.23 57.7282 334.965 57.5323 334.758C57.3364 334.551 57.0753 334.447 56.7489 334.447C56.3571 334.447 56.052 334.559 55.8334 334.783C55.6177 335.005 55.5098 335.314 55.5098 335.712H54.7221C54.7221 335.141 54.9052 334.68 55.2714 334.328C55.6404 333.976 56.1329 333.8 56.7489 333.8C57.3251 333.8 57.7807 333.952 58.1156 334.255C58.4506 334.556 58.618 334.958 58.618 335.46C58.618 336.071 58.2292 336.797 57.4514 337.64L55.7909 339.441H58.9033V340.084ZM62.8375 340.084H62.0498V333.544H62.8375V340.084ZM64.9579 340.084H64.1702V335.477H64.9579V340.084ZM64.1064 334.255C64.1064 334.128 64.1447 334.02 64.2213 333.932C64.3008 333.844 64.4172 333.8 64.5705 333.8C64.7238 333.8 64.8401 333.844 64.9196 333.932C64.9991 334.02 65.0388 334.128 65.0388 334.255C65.0388 334.383 64.9991 334.49 64.9196 334.575C64.8401 334.66 64.7238 334.702 64.5705 334.702C64.4172 334.702 64.3008 334.66 64.2213 334.575C64.1447 334.49 64.1064 334.383 64.1064 334.255ZM67.5084 337.951L67.0145 338.466V340.084H66.2268V333.544H67.0145V337.5L67.436 336.993L68.8709 335.477H69.8289L68.0363 337.402L70.0375 340.084H69.1136L67.5084 337.951ZM72.4687 340.17C71.8442 340.17 71.3361 339.965 70.9444 339.556C70.5527 339.145 70.3568 338.596 70.3568 337.909V337.764C70.3568 337.307 70.4434 336.9 70.6166 336.542C70.7926 336.181 71.0367 335.9 71.3489 335.699C71.664 335.494 72.0046 335.392 72.3708 335.392C72.9697 335.392 73.4352 335.59 73.7673 335.984C74.0995 336.379 74.2655 336.944 74.2655 337.679V338.007H71.1445C71.1559 338.461 71.2879 338.828 71.5405 339.109C71.796 339.387 72.1196 339.527 72.5113 339.527C72.7895 339.527 73.0251 339.47 73.2181 339.356C73.4111 339.243 73.58 339.092 73.7248 338.905L74.2059 339.28C73.8199 339.873 73.2408 340.17 72.4687 340.17ZM72.3708 336.039C72.0529 336.039 71.786 336.156 71.5703 336.389C71.3546 336.618 71.2212 336.942 71.1701 337.359H73.4778V337.3C73.4551 336.9 73.3472 336.59 73.1542 336.372C72.9612 336.15 72.7001 336.039 72.3708 336.039ZM77.8634 338.862C77.8634 338.649 77.7825 338.485 77.6207 338.368C77.4617 338.249 77.1821 338.147 76.7819 338.062C76.3845 337.977 76.068 337.875 75.8324 337.755C75.5996 337.636 75.4265 337.494 75.3129 337.33C75.2022 337.165 75.1469 336.969 75.1469 336.742C75.1469 336.364 75.3058 336.045 75.6237 335.784C75.9445 335.523 76.3533 335.392 76.85 335.392C77.3723 335.392 77.7952 335.527 78.1188 335.797C78.4453 336.066 78.6085 336.411 78.6085 336.831H77.8165C77.8165 336.616 77.7243 336.43 77.5398 336.274C77.3581 336.117 77.1282 336.039 76.85 336.039C76.5633 336.039 76.3391 336.102 76.1773 336.227C76.0155 336.352 75.9346 336.515 75.9346 336.716C75.9346 336.907 76.0098 337.05 76.1602 337.146C76.3107 337.243 76.5818 337.335 76.9735 337.423C77.368 337.511 77.6874 337.616 77.9315 337.738C78.1756 337.86 78.3558 338.008 78.4722 338.181C78.5914 338.351 78.6511 338.56 78.6511 338.807C78.6511 339.219 78.4864 339.549 78.1571 339.799C77.8279 340.046 77.4007 340.17 76.8755 340.17C76.5065 340.17 76.1801 340.104 75.8962 339.974C75.6124 339.843 75.3896 339.661 75.2278 339.429C75.0688 339.193 74.9893 338.939 74.9893 338.666H75.777C75.7912 338.93 75.8962 339.141 76.0921 339.297C76.2908 339.45 76.552 339.527 76.8755 339.527C77.1736 339.527 77.412 339.467 77.5909 339.348C77.7725 339.226 77.8634 339.064 77.8634 338.862Z" fill="#3E3E3D"/>
<path d="M21.1699 20.5805L21.709 19.3104L23.3679 17.7363L28.4252 17.5901V30.1765H24.3089L22.8823 30.7485L21.1699 32.966V20.5805Z" fill="white"/>
<path d="M28.7837 17.9513L24.112 22.708H22.6816L28.0608 17.231L28.7837 17.9513Z" fill="#B01A25"/>
<path d="M28.6954 29.7376L27.9827 30.4629L22.6211 25.1239L22.6261 25.1188H24.0591L28.6954 29.7376Z" fill="#B01A25"/>
<path d="M21.5645 26.0424L20.9102 25.4465L20.9824 25.3158C20.9824 24.7463 20.7768 24.5333 21.065 24.2157C21.5804 23.648 22.3912 23.4358 22.9072 23.4105L28.9217 23.4101V24.4318L22.9468 24.4318C22.7629 24.444 21.5643 24.5605 21.5643 25.5312V26.0424H21.5645Z" fill="#B01A25"/>
<path d="M24.8608 30.6873L28.9321 30.6873V17.0783H24.8608C23.6519 17.0783 22.4953 17.599 21.6907 18.5026C21.2542 18.9888 20.9364 19.5541 20.7533 20.1619L19.3634 18.7619V18.7599L21.0852 14.4606L22.272 17.4349C22.5596 17.2606 22.8553 17.0823 23.1852 16.9851L21.0852 11.7274L15.3726 25.9868C14.6082 27.9035 14.8335 30.0673 15.98 31.7793C17.1266 33.4893 19.0355 34.5125 21.0852 34.5125C23.1349 34.5125 25.0438 33.4893 26.1904 31.7793C26.3191 31.5848 26.4378 31.3843 26.5444 31.1817H25.3657C25.3617 31.1918 25.3536 31.1979 25.3476 31.208C24.4826 32.5026 23.155 33.3009 21.6444 33.4589C21.741 32.8248 22.0226 32.2352 22.4611 31.755C23.0746 31.0763 23.9476 30.6873 24.8608 30.6873ZM18.949 19.7891L20.5783 21.4302V27.8528L17.1186 24.368L18.949 19.7891ZM16.8209 31.208C15.8473 29.7573 15.6622 27.9926 16.314 26.3698L16.7042 25.3973L20.5783 29.2974V33.465C19.0456 33.3191 17.6958 32.5168 16.8209 31.208ZM22.3203 30.5131C22.101 30.6751 21.8979 30.8595 21.713 31.0641C21.6708 31.1087 21.6305 31.1553 21.5923 31.2019V21.2418C21.6245 20.5489 21.88 19.8783 22.3245 19.3252V22.0543L26.2489 18.1014H27.9165V19.8215L25.0499 22.7087H27.9162V25.1217H25.1585L27.9162 27.8994V29.6662H26.0777L22.3203 25.8835V30.5131Z" fill="#2E336A"/>
<path d="M32.5813 20.8512H30.5957V30.5107H32.5813V20.8512Z" fill="#2E336A"/>
<path d="M37.4798 30.5108H33.7617V20.8513H37.4771C39.0677 20.8513 40.3624 22.1603 40.3624 23.7687C40.3624 25.3778 39.0677 26.6865 37.4771 26.6865H37.0805V24.6823H37.4767C37.9747 24.6823 38.3799 24.2722 38.3799 23.7687C38.3799 23.2651 37.9747 22.8554 37.4767 22.8554H35.7438V28.5062H37.4798C37.9763 28.5062 38.3799 28.0981 38.3799 27.5961H40.362C40.362 29.2033 39.0689 30.5108 37.4798 30.5108Z" fill="#2E336A"/>
<path d="M44.0131 30.5107H41.6808V28.5077H44.0131C44.5131 28.5077 44.9204 28.0978 44.9204 27.5947C44.9204 27.0915 44.5131 26.6821 44.0131 26.6821H43.5826C41.9855 26.6821 40.6855 25.374 40.6855 23.7669C40.6855 22.1589 41.9855 20.8512 43.5826 20.8512H45.9157V22.8539H43.5826C43.0826 22.8539 42.6757 23.2637 42.6757 23.7669C42.6757 24.27 43.0826 24.6794 43.5826 24.6794H44.0131C45.611 24.6794 46.9106 25.9875 46.9106 27.5947C46.911 29.2026 45.611 30.5107 44.0131 30.5107Z" fill="#2E336A"/>
<path d="M20.5782 21.4312V21.8931H20.5742V21.4272L20.5782 21.4312Z" fill="#2E336A"/>
<path d="M246.262 25.3524C246.968 25.3524 247.541 24.7796 247.541 24.0731C247.541 23.3665 246.968 22.7937 246.262 22.7937C245.555 22.7937 244.982 23.3665 244.982 24.0731C244.982 24.7796 245.555 25.3524 246.262 25.3524Z" fill="#3E3E3D"/>
<path d="M250.131 25.3528C250.837 25.3528 251.41 24.78 251.41 24.0734C251.41 23.3669 250.837 22.7941 250.131 22.7941C249.424 22.7941 248.852 23.3669 248.852 24.0734C248.852 24.78 249.424 25.3528 250.131 25.3528Z" fill="#3E3E3D"/>
<path d="M254.014 25.3529C254.72 25.3529 255.293 24.7801 255.293 24.0735C255.293 23.367 254.72 22.7942 254.014 22.7942C253.307 22.7942 252.734 23.367 252.734 24.0735C252.734 24.7801 253.307 25.3529 254.014 25.3529Z" fill="#3E3E3D"/>
<path d="M30.6394 320.645L37.6651 314.963C38.4607 314.329 39.0536 313.477 39.3709 312.511C40.6609 308.47 36.9934 304.131 32.6437 305.837C31.4491 306.508 31.4491 306.508 30.6287 307.852C29.8499 306.508 29.8499 306.508 28.6137 305.837C24.2746 304.142 20.5965 308.47 21.8865 312.511C22.2038 313.477 22.7968 314.329 23.5924 314.963L30.6394 320.645Z" fill="#C84852"/>
<path d="M30.39 343.289L34.9653 339.301C35.4834 338.856 35.8695 338.258 36.0761 337.579C36.9162 334.743 34.5279 331.698 31.6952 332.895C30.9173 333.367 30.9173 333.367 30.383 334.309C29.8758 333.367 29.8758 333.367 29.0708 332.895C26.2451 331.705 23.8498 334.743 24.6899 337.579C24.8965 338.258 25.2826 338.856 25.8007 339.301L30.39 343.289Z" fill="#3E3E3D"/>
<path d="M69.8198 315.837C70.6645 314.169 70.8959 312.256 70.4737 310.435C70.0515 308.613 69.0024 306.998 67.51 305.871C66.0175 304.744 64.1766 304.178 62.3089 304.27C60.4412 304.363 58.6655 305.11 57.2923 306.379C55.919 307.648 55.0355 309.36 54.7961 311.214C54.5567 313.069 54.9767 314.949 55.9827 316.525C56.9887 318.102 58.5167 319.274 60.2996 319.838C62.0825 320.402 64.007 320.322 65.7366 319.611C66.0737 319.466 66.4507 319.444 66.8027 319.547L69.1695 320.272C69.2944 320.311 69.4272 320.317 69.5551 320.29C69.683 320.262 69.8016 320.202 69.8993 320.115C69.997 320.028 70.0705 319.917 70.1127 319.793C70.1548 319.67 70.1641 319.537 70.1397 319.408L69.6599 316.85C69.5981 316.504 69.6545 316.147 69.8198 315.837Z" stroke="#3E3E3D" stroke-width="1.5" stroke-miterlimit="10"/>
<path d="M252.008 318.566L246.933 314.216L241.858 318.566C241.778 318.636 241.678 318.681 241.573 318.695C241.467 318.71 241.359 318.694 241.262 318.649C241.165 318.604 241.083 318.532 241.027 318.441C240.97 318.351 240.94 318.246 240.941 318.139V305.964C240.941 305.724 241.037 305.493 241.207 305.323C241.377 305.153 241.607 305.058 241.848 305.058H252.008C252.248 305.058 252.479 305.153 252.649 305.323C252.819 305.493 252.914 305.724 252.914 305.964V318.171C252.908 318.273 252.874 318.372 252.815 318.456C252.756 318.54 252.676 318.606 252.582 318.646C252.488 318.687 252.385 318.701 252.283 318.687C252.182 318.673 252.087 318.631 252.008 318.566V318.566Z" stroke="#3E3E3D" stroke-width="1.5" stroke-linejoin="round"/>
<path d="M190.387 22.7073V24.2532H193.19V24.9888H190.387V27.2916H189.598V21.961H193.489V22.686H190.376L190.387 22.7073Z" fill="#8BC4DD"/>
<path d="M194.758 24.6275C194.758 24.0835 194.919 23.5518 195.221 23.0994C195.524 22.6471 195.953 22.2945 196.456 22.0863C196.958 21.8782 197.511 21.8237 198.045 21.9298C198.579 22.036 199.069 22.298 199.453 22.6826C199.838 23.0673 200.1 23.5574 200.206 24.091C200.312 24.6245 200.258 25.1776 200.05 25.6802C199.841 26.1828 199.489 26.6123 199.037 26.9146C198.584 27.2168 198.052 27.3781 197.508 27.3781C196.781 27.3698 196.087 27.0774 195.573 26.5633C195.059 26.0493 194.766 25.3545 194.758 24.6275V24.6275ZM199.459 24.6275C199.445 24.2447 199.318 23.8747 199.094 23.5636C198.871 23.2526 198.56 23.0142 198.202 22.8782C197.844 22.7423 197.454 22.7148 197.08 22.7991C196.707 22.8835 196.366 23.076 196.101 23.3526C195.836 23.6293 195.658 23.9778 195.59 24.3548C195.522 24.7317 195.566 25.1204 195.717 25.4724C195.869 25.8244 196.12 26.124 196.44 26.334C196.761 26.544 197.136 26.655 197.519 26.6532C198.039 26.6311 198.531 26.4073 198.889 26.0292C199.247 25.6511 199.444 25.1483 199.438 24.6275H199.459Z" fill="#8BC4DD"/>
<path d="M205.29 26.5565V27.2815H201.697V21.9509H202.486V26.5245H205.29V26.5565Z" fill="#8BC4DD"/>
<path d="M210.216 26.5572V27.2822H206.623V21.9516H207.412V26.5252H210.216V26.5572Z" fill="#8BC4DD"/>
<path d="M211.41 24.6277C211.41 24.0837 211.571 23.5519 211.874 23.0996C212.176 22.6473 212.606 22.2947 213.108 22.0865C213.611 21.8783 214.164 21.8239 214.697 21.93C215.231 22.0362 215.721 22.2982 216.106 22.6828C216.49 23.0675 216.752 23.5576 216.859 24.0912C216.965 24.6247 216.91 25.1778 216.702 25.6804C216.494 26.183 216.141 26.6125 215.689 26.9148C215.237 27.217 214.705 27.3783 214.161 27.3783C213.434 27.37 212.739 27.0776 212.225 26.5635C211.711 26.0495 211.418 25.3546 211.41 24.6277ZM216.112 24.6277C216.097 24.2449 215.97 23.8749 215.746 23.5638C215.523 23.2527 215.213 23.0144 214.855 22.8784C214.496 22.7425 214.106 22.7149 213.733 22.7993C213.359 22.8837 213.018 23.0762 212.753 23.3528C212.488 23.6294 212.311 23.978 212.242 24.3549C212.174 24.7319 212.218 25.1206 212.37 25.4726C212.521 25.8246 212.772 26.1242 213.093 26.3342C213.413 26.5442 213.788 26.6552 214.171 26.6534C214.69 26.6286 215.179 26.4036 215.534 26.0258C215.89 25.648 216.086 25.1468 216.08 24.6277H216.112Z" fill="#8BC4DD"/>
<path d="M217.914 21.9832H218.778L220.078 26.0237L221.411 21.9832H222.275L223.597 26.0237L224.897 21.9832H225.761L224.012 27.3138H223.234L221.837 23.0493L220.43 27.3138H219.652L217.914 21.9832Z" fill="#8BC4DD"/>
<path d="M235.749 16.8341L179.618 16.8341C177.711 16.8341 176.164 18.3806 176.164 20.2884V28.9879C176.164 30.8956 177.711 32.4421 179.618 32.4421L235.749 32.4421C237.657 32.4421 239.204 30.8956 239.204 28.9879V20.2884C239.204 18.3806 237.657 16.8341 235.749 16.8341Z" stroke="#8BC4DD" stroke-miterlimit="10"/>
<path d="M85.8223 305.176H104.586L92.6028 321.189L92.5921 310.965L85.8223 305.176Z" stroke="#3E3E3D" stroke-width="1.35" stroke-linejoin="round"/>
<path d="M92.5918 310.965L104.586 305.175" stroke="#3E3E3D" stroke-width="1.35" stroke-linejoin="round"/>
</svg>
