<svg width="47" height="47" viewBox="0 0 47 47" fill="none" xmlns="http://www.w3.org/2000/svg">
<circle cx="23.5" cy="23.5" r="23.5" fill="#F6DF39"/>
<path d="M29.8333 17.3332H29V15.6665H27.3333V17.3332H20.6667V15.6665H19V17.3332H18.1667C17.2417 17.3332 16.5083 18.0832 16.5083 18.9998L16.5 30.6665C16.5 31.5832 17.2417 32.3332 18.1667 32.3332H29.8333C30.75 32.3332 31.5 31.5832 31.5 30.6665V18.9998C31.5 18.0832 30.75 17.3332 29.8333 17.3332ZM29.8333 30.6665H18.1667V22.3332H29.8333V30.6665ZM29.8333 20.6665H18.1667V18.9998H29.8333V20.6665ZM24 24.8332H28.1667V28.9998H24V24.8332Z" fill="#010101"/>
</svg>
