<svg width="46" height="46" viewBox="0 0 46 46" fill="none" xmlns="http://www.w3.org/2000/svg">
<circle cx="23" cy="23" r="23" fill="#F7DF39"/>
<path d="M22.9997 22.9998C22.083 22.9998 21.333 22.2498 21.333 21.3332C21.333 20.4165 22.083 19.6665 22.9997 19.6665C23.9163 19.6665 24.6663 20.4165 24.6663 21.3332C24.6663 22.2498 23.9163 22.9998 22.9997 22.9998ZM27.9997 21.4998C27.9997 18.4748 25.7913 16.3332 22.9997 16.3332C20.208 16.3332 17.9997 18.4748 17.9997 21.4998C17.9997 23.4498 19.6247 26.0332 22.9997 29.1165C26.3747 26.0332 27.9997 23.4498 27.9997 21.4998ZM22.9997 14.6665C26.4997 14.6665 29.6663 17.3498 29.6663 21.4998C29.6663 24.2665 27.4413 27.5415 22.9997 31.3332C18.558 27.5415 16.333 24.2665 16.333 21.4998C16.333 17.3498 19.4997 14.6665 22.9997 14.6665Z" fill="#010101"/>
</svg>
