<svg width="85" height="18" viewBox="0 0 85 18" fill="none" xmlns="http://www.w3.org/2000/svg">
<path d="M1.0582 10.6646L2.32804 9.74281C2.77248 10.193 3.25926 10.4074 3.80952 10.4074C4.35978 10.3859 4.84655 10.0858 5.24867 9.54987C5.48147 9.12113 5.50265 8.64951 5.37566 8.19933C5.22751 7.74915 4.95238 7.40615 4.55026 7.19178L2.75132 6.18423C1.92592 5.75548 1.41799 5.11237 1.14286 4.23345C0.88889 3.37596 0.973542 2.5399 1.39682 1.70385C1.94709 0.653427 2.85714 0.0960608 4.06349 0.0103119C5.291 -0.075437 6.24338 0.374746 6.94179 1.31798L5.67195 2.23978C5.22751 1.7896 4.74074 1.57523 4.19048 1.57523C3.64021 1.59666 3.15343 1.89678 2.75132 2.43271C2.51851 2.86146 2.49736 3.33308 2.62434 3.78326C2.77249 4.25488 3.04762 4.59787 3.44974 4.81225L5.24867 5.8198C6.07407 6.24854 6.58201 6.89166 6.85714 7.77059C7.11111 8.62807 7.02645 9.46412 6.60317 10.3002C6.03174 11.3506 5.14286 11.908 3.95767 11.9937C2.75132 12.058 1.79894 11.6293 1.0582 10.6646Z" fill="url(#paint0_linear)"/>
<path d="M14.2851 0C15.9335 0 17.3621 0.593407 18.5269 1.75824C19.6918 2.92308 20.2852 4.35165 20.2852 6C20.2852 7.64835 19.6918 9.07692 18.5269 10.2418C17.3621 11.4066 15.9335 12 14.2851 12C12.6368 12 11.2082 11.4066 10.0434 10.2418C8.87856 9.07692 8.28516 7.64835 8.28516 6C8.28516 4.35165 8.87856 2.92308 10.0434 1.75824C11.2082 0.593407 12.6368 0 14.2851 0ZM14.2851 10.4176C15.4939 10.4176 16.5489 9.97803 17.406 9.12088C18.2632 8.26374 18.6808 7.23077 18.6808 6.02198C18.6808 4.81319 18.2412 3.75825 17.406 2.9011C16.5489 2.04396 15.4939 1.62637 14.2851 1.62637C13.0764 1.62637 12.0214 2.06594 11.1863 2.9011C10.3291 3.75825 9.88955 4.81319 9.88955 6.02198C9.88955 7.23077 10.3291 8.28572 11.1863 9.12088C12.0214 10 13.0764 10.4176 14.2851 10.4176Z" fill="url(#paint1_linear)"/>
<path d="M28.4284 12H21.5713V0H23.186V10.3985H28.4284V12Z" fill="url(#paint2_linear)"/>
<path d="M35.9283 0C37.5178 0 38.8953 0.593407 40.0186 1.75824C41.1418 2.92308 41.714 4.35165 41.714 6C41.714 7.64835 41.1418 9.07692 40.0186 10.2418C38.8953 11.4066 37.5178 12 35.9283 12C34.3388 12 32.9613 11.4066 31.838 10.2418C30.7148 9.07692 30.1426 7.64835 30.1426 6C30.1426 4.35165 30.7148 2.92308 31.838 1.75824C32.9613 0.593407 34.3388 0 35.9283 0ZM35.9283 10.4176C37.0939 10.4176 38.1112 9.97803 38.9377 9.12088C39.7642 8.26374 40.1669 7.23077 40.1669 6.02198C40.1669 4.81319 39.7431 3.75825 38.9377 2.9011C38.1112 2.04396 37.0939 1.62637 35.9283 1.62637C34.7627 1.62637 33.7454 2.06594 32.9401 2.9011C32.1135 3.75825 31.6897 4.81319 31.6897 6.02198C31.6897 7.23077 32.1135 8.28572 32.9401 9.12088C33.7454 10 34.7627 10.4176 35.9283 10.4176Z" fill="url(#paint3_linear)"/>
<path d="M53.4084 0H55.0003L50.2248 12H48.6329L43.8574 0H45.4493L49.4389 9.98172L53.4084 0Z" fill="url(#paint4_linear)"/>
<path d="M58.4283 0V12H57.1426V0H58.4283Z" fill="url(#paint5_linear)"/>
<path d="M65.7148 0C67.3632 0 68.7918 0.593407 69.9566 1.75824C71.1214 2.92308 71.7148 4.35165 71.7148 6C71.7148 7.64835 71.1214 9.07692 69.9566 10.2418C68.7918 11.4066 67.3632 12 65.7148 12C64.0665 12 62.6379 11.4066 61.4731 10.2418C60.3083 9.07692 59.7148 7.64835 59.7148 6C59.7148 4.35165 60.3083 2.92308 61.4731 1.75824C62.6379 0.593407 64.0445 0 65.7148 0ZM65.7148 10.4176C66.9236 10.4176 67.9786 9.97803 68.8357 9.12088C69.6929 8.26374 70.1104 7.23077 70.1104 6.02198C70.1104 4.81319 69.6709 3.75825 68.8357 2.9011C67.9786 2.04396 66.9236 1.62637 65.7148 1.62637C64.5061 1.62637 63.4511 2.06594 62.6159 2.9011C61.7588 3.75825 61.3192 4.81319 61.3192 6.02198C61.3192 7.23077 61.7588 8.28572 62.6159 9.12088C63.4511 10 64.4841 10.4176 65.7148 10.4176Z" fill="url(#paint6_linear)"/>
<path d="M83.2826 0H85L79.8478 12H78.1304L73 0H74.7174L79.0217 9.98172L83.2826 0Z" fill="url(#paint7_linear)"/>
<rect y="17" width="85" height="1" fill="#5192CD"/>
<defs>
<linearGradient id="paint0_linear" x1="0.99837" y1="5.97265" x2="84.0406" y2="5.97265" gradientUnits="userSpaceOnUse">
<stop stop-color="#2C7ACA"/>
<stop offset="0.6684" stop-color="#7E77B1"/>
<stop offset="1" stop-color="#A275A6"/>
</linearGradient>
<linearGradient id="paint1_linear" x1="0.420826" y1="6.00286" x2="86.6569" y2="6.00286" gradientUnits="userSpaceOnUse">
<stop stop-color="#2C7ACA"/>
<stop offset="0.6684" stop-color="#7E77B1"/>
<stop offset="1" stop-color="#A275A6"/>
</linearGradient>
<linearGradient id="paint2_linear" x1="-0.0359441" y1="5.99188" x2="86.7565" y2="5.99188" gradientUnits="userSpaceOnUse">
<stop stop-color="#2C7ACA"/>
<stop offset="0.6684" stop-color="#7E77B1"/>
<stop offset="1" stop-color="#A275A6"/>
</linearGradient>
<linearGradient id="paint3_linear" x1="1.32364" y1="6.00286" x2="84.4799" y2="6.00286" gradientUnits="userSpaceOnUse">
<stop stop-color="#2C7ACA"/>
<stop offset="0.6684" stop-color="#7E77B1"/>
<stop offset="1" stop-color="#A275A6"/>
</linearGradient>
<linearGradient id="paint4_linear" x1="3.98439" y1="5.99188" x2="83.0472" y2="5.99188" gradientUnits="userSpaceOnUse">
<stop stop-color="#2C7ACA"/>
<stop offset="0.6684" stop-color="#7E77B1"/>
<stop offset="1" stop-color="#A275A6"/>
</linearGradient>
<linearGradient id="paint5_linear" x1="11.265" y1="5.99188" x2="80.372" y2="5.99188" gradientUnits="userSpaceOnUse">
<stop stop-color="#2C7ACA"/>
<stop offset="0.6684" stop-color="#7E77B1"/>
<stop offset="1" stop-color="#A275A6"/>
</linearGradient>
<linearGradient id="paint6_linear" x1="-0.764873" y1="6.00286" x2="85.4712" y2="6.00286" gradientUnits="userSpaceOnUse">
<stop stop-color="#2C7ACA"/>
<stop offset="0.6684" stop-color="#7E77B1"/>
<stop offset="1" stop-color="#A275A6"/>
</linearGradient>
<linearGradient id="paint7_linear" x1="-0.278847" y1="5.99188" x2="85.0199" y2="5.99188" gradientUnits="userSpaceOnUse">
<stop stop-color="#2C7ACA"/>
<stop offset="0.6684" stop-color="#7E77B1"/>
<stop offset="1" stop-color="#A275A6"/>
</linearGradient>
</defs>
</svg>
